<svg xmlns="http://www.w3.org/2000/svg" width="713px" height="625px" viewBox="87 123 532.8556484 466.85564839999995" version="1.1" id="svg5" xml:space="preserve" data-square-offset-x="105.42231419999999" data-square-offset-y="139.89852919999998"><defs id="defs2" style="fill: rgb(25, 67, 28);"/><g id="layer1" transform="translate(712.8556484, 0) scale(-1, 1)" style="fill: rgb(25, 67, 28);"><path style="fill: rgb(25, 67, 28); stroke-width: 1;" d="m 232.70861419999997 571.8195292000003 c 7.0296,-3.133 19.7605,-6.872 27.5313,-8.086 1.9756,-0.308 3.4254,-0.704 3.2218,-0.879 -0.6707,-0.573 -8.5537,-2.69 -14.4102,-3.87 -10.6848,-2.153 -21.2181,-3.262 -36.0329,-3.797 -4.746,-0.173 -8.5603,-0.383 -8.4755,-0.468 0.274,-0.272 10.9705,-2.341 16.6574,-3.22 4.5646,-0.705 8.1205,-0.848 20.4847,-0.829 14.0762,0.03 15.3563,0.09 21.6343,1.231 3.6695,0.663 6.7543,1.123 6.8548,1.023 0.3654,-0.366 -4.1562,-5.239 -6.3628,-6.86 -4.9875,-3.662 -12.8875,-6.581 -23.7366,-8.772 -4.81,-0.971 -7.733,-1.397 -19.249,-2.811 -1.2201,-0.15 -2.1518,-0.332 -2.0722,-0.408 0.078,-0.08 2.9413,-0.471 6.3589,-0.881 3.4189,-0.411 7.1471,-0.872 8.2863,-1.026 l 2.0722,-0.279 -2.0722,-0.912 c -8.4951,-3.741 -23.4169,-7.168 -35.3596,-8.119 l -3.9995,-0.319 3.5585,-0.558 c 7.0061,-1.096 14.9388,-1.58 23.2316,-1.416 4.6337,0.09 8.4259,0.13 8.4259,0.08 0,-0.259 -8.7939,-5.054 -12.1737,-6.638 -9.9735,-4.674 -23.7144,-8.561 -38.0033,-10.751 -7.8765,-1.208 -28.7175,-3.456 -32.5618,-3.512 -8.2641,-0.117 1.4015,-1.757 16.4486,-2.783 7.1666,-0.488 22.7292,-0.257 25.9393,0.385 2.5889,0.517 0.7829,-0.837 -4.4798,-3.358 -9.8235,-4.707 -25.1629,-8.009 -42.7702,-9.209 -2.4807,-0.169 -4.4394,-0.377 -4.3533,-0.463 0.091,-0.09 3.3589,-0.497 7.2711,-0.915 8.2967,-0.883 22.6835,-0.661 27.6004,0.425 1.6455,0.364 3.0614,0.597 3.1449,0.519 0.091,-0.08 -1.3349,-1.188 -3.1527,-2.465 -9.2376,-6.487 -23.2264,-11.076 -40.1473,-13.172 -3.0927,-0.382 -6.6643,-0.702 -7.9379,-0.71 -3.5572,-0.03 -1.6781,-0.728 4.3807,-1.647 2.9008,-0.439 8.0174,-0.815 11.3711,-0.835 3.3549,-0.01 6.0992,-0.104 6.1005,-0.181 0,-0.08 -1.5007,-0.837 -3.3367,-1.681 -3.8808,-1.788 -11.0579,-4.047 -15.9971,-5.037 -2.7455,-0.551 -19.151,-3.034 -20.0397,-3.034 -0.1174,0 -0.2153,-0.183 -0.2153,-0.404 0,-0.498 5.4207,-1.898 7.3441,-1.898 0.7712,0 1.4015,-0.184 1.4015,-0.41 0,-0.469 -1.6912,-0.816 -6.0992,-1.252 -2.923,-0.289 -3.107,-0.375 -3.107,-1.454 v -1.148 l 8.6307,0.265 c 4.7473,0.146 10.031,0.554 11.7391,0.909 1.7095,0.354 3.1058,0.521 3.1031,0.371 0,-0.611 -9.3223,-6.077 -16.4524,-9.655 -2.0892,-1.05 -3.7987,-1.977 -3.7987,-2.064 0,-0.334 10.1119,2.092 14.0332,3.366 2.2732,0.74 4.1692,1.306 4.211,1.259 0.039,-0.04 -0.8861,-3.952 -2.0631,-8.682 l -2.1401,-8.596 -2.7625,-0.5 c -1.519,-0.274 -5.5068,-0.843 -8.8618,-1.263 l -6.0992,-0.764 v -1.957 c 0,-1.827 0.1044,-1.978 1.472,-2.28 1.9417,-0.427 8.6229,-0.43 12.1841,0 l 2.8369,0.337 -0.4476,-1.99 c -0.5755,-2.562 -1.1562,-3.165 -5.7939,-6.008 -5.632,-3.454 -5.5668,-3.722 0.5455,-2.221 2.0135,0.493 3.7373,0.822 3.8299,0.728 0.091,-0.09 -0.1514,-2.935 -0.5428,-6.316 -3.1005,-26.743 -1.1679,-56.414 5.4298,-83.365 10.4837,-42.821 30.8223,-79.544 61.4293,-110.92 47.8177,-49.015 119.7777,-75.41 187.4407,-68.755 40.3535,3.97 76.4999,16.65 109.2926,38.34 15.0745,9.971 23.8906,17.223 37.3339,30.705 31.3887,31.48 52.6081,70.235 62.0844,113.389 6.5886,30.001 7.9131,57.443 4.1732,86.434 -1.8504,14.339 -6.6525,33.637 -11.9127,47.876 -1.4041,3.799 -2.5537,7.165 -2.5563,7.482 0,0.435 1.7238,0.575 7.1197,0.575 8.02,0 7.5202,0.131 19.1145,-4.837 3.4176,-1.464 6.8665,-2.936 7.6638,-3.272 1.3141,-0.553 1.4302,-0.536 1.2449,0.182 -0.1174,0.436 -0.4554,2.552 -0.7595,4.704 -0.5441,3.852 -0.578,3.924 -2.1648,4.583 -0.8861,0.368 -5.6256,2.683 -10.5308,5.145 l -8.9204,4.476 -5.5812,-2.12 c -8.5538,-3.251 -11.0423,-3.062 -24.1646,1.834 -4.4694,1.668 -6.5507,2.228 -7.596,2.044 -0.792,-0.14 -3.3915,-0.681 -5.7769,-1.202 -2.3841,-0.521 -4.4093,-0.873 -4.5006,-0.783 -0.5298,0.53 5.542,5.883 8.1505,7.186 3.4803,1.738 5.2745,3.285 6.4437,5.558 0.8247,1.602 0.9435,1.655 6.9775,3.072 10.0153,2.351 9.1318,2.309 9.1318,0.426 0,-1.77 0.9813,-4.662 1.194,-3.518 0.065,0.38 0.2558,1.664 0.4124,2.855 l 0.2845,2.165 1.6403,-0.921 c 1.8738,-1.053 2.3149,-0.92 1.4667,0.439 -0.3249,0.519 -0.4946,1.037 -0.3771,1.152 0.582,0.569 13.8478,5.311 14.3554,5.132 1.1118,-0.393 13.8479,-2.089 14.0632,-1.874 0.1775,0.176 -1.2775,13.573 -1.515,13.956 -0.039,0.07 -2.6242,-0.314 -5.7417,-0.844 -3.1187,-0.53 -9.107,-1.215 -13.3089,-1.523 l -7.6403,-0.561 3.8456,-1.961 c 2.1153,-1.078 3.7634,-2.042 3.6642,-2.143 -0.4032,-0.402 -12.4973,-2.063 -18.158,-2.492 -5.6647,-0.431 -8.4559,-1.068 -8.4559,-1.928 0,-0.33 1.8321,-0.933 4.3728,-1.438 1.7447,-0.347 -5.405,-2.209 -11.2628,-2.934 l -5.7704,-0.714 -22.5569,2.124 c -26.4235,2.489 -32.9363,3.226 -31.9942,3.62 0.3798,0.159 5.559,1.443 11.5095,2.853 19.7082,4.67 92.9093,23.373 98.4513,25.156 1.5215,0.489 1.5437,0.534 1.2893,2.631 -0.1423,1.174 -0.5024,4.153 -0.7999,6.622 -0.2976,2.469 -0.6838,4.489 -0.8587,4.489 -0.1735,0 -5.3789,-1.459 -11.5668,-3.241 -24.8301,-7.153 -92.3248,-25.985 -101.6132,-28.352 l -4.9979,-1.273 -2.1975,1.287 c -1.2083,0.708 -2.0213,1.441 -1.806,1.628 0.2153,0.187 4.2227,1.422 8.9074,2.742 10.1158,2.853 33.872,9.709 40.0508,11.559 2.4049,0.72 10.7943,3.208 18.6434,5.528 7.8492,2.32 21.2103,6.299 29.6923,8.842 8.482,2.542 17.3437,5.187 19.6926,5.879 2.3476,0.69 4.3976,1.383 4.5542,1.539 0.2505,0.251 -0.3954,8.301 -1.0779,13.427 l -0.2453,1.842 -12.7269,-4.281 c -51.6633,-17.38 -163.2422,-52.573 -166.6807,-52.573 -0.8443,0 -4.241,2.885 -3.8404,3.262 0.1945,0.183 2.8396,1.074 5.8774,1.979 9.1319,2.72 77.1224,25.594 112.786,37.947 36.8954,12.778 60.5198,21.091 60.8369,21.408 0.3679,0.368 -23.4482,0.772 -44.4536,0.753 -17.3725,-0.01 -22.7279,-0.156 -23.9793,-0.629 -0.886,-0.334 -5.9609,-2.369 -11.2785,-4.522 -33.1907,-13.445 -110.1408,-43.046 -144.5556,-55.606 -74.8166,-27.307 -129.6652,-44.664 -200.015,-63.293 -17.007,-4.503 -20.255,-5.23 -20.255,-4.526 0,0.229 4.0909,1.629 9.0914,3.112 19.7514,5.852 42.538,12.727 48.2209,14.547 3.2923,1.055 7.9535,2.525 10.3585,3.27 8.2549,2.554 37.0729,12.284 56.3923,19.042 56.639,19.808 140.8484,53.228 199.7305,79.262 15.7126,6.949 16.7904,7.498 15.7896,8.059 -0.475,0.267 -9.9971,0.37 -24.3669,0.264 -20.2485,-0.147 -23.9441,-0.279 -26.1181,-0.932 -6.1462,-1.844 -14.5433,-7.456 -12.89,-8.614 0.4554,-0.318 5.3593,-0.441 14.3633,-0.357 7.5203,0.06 13.5282,-0.01 13.3507,-0.183 -0.1775,-0.169 -5.2954,-2.522 -11.3711,-5.229 -6.0771,-2.706 -11.8775,-5.364 -12.8901,-5.907 -1.7564,-0.94 -2.5955,-0.996 -18.2089,-1.216 l -16.3677,-0.23 -3.428,-1.703 c -3.4032,-1.691 -6.4189,-4.014 -6.4189,-4.945 0,-0.478 11.3802,-0.851 17.8383,-0.585 1.5829,0.07 2.8774,0 2.8774,-0.151 0,-0.149 -1.8126,-1.106 -4.0283,-2.125 -2.2158,-1.02 -6.2115,-2.871 -8.8801,-4.113 l -4.8517,-2.26 h -12.9918 c -12.4385,0 -13.0832,-0.04 -15.1541,-1.017 -1.1888,-0.558 -2.9987,-1.853 -4.0231,-2.876 l -1.8608,-1.861 8.0449,-0.13 c 4.425,-0.07 8.2184,-0.3 8.4311,-0.513 0.2127,-0.213 -0.6812,-0.736 -1.9861,-1.163 -1.3036,-0.426 -4.1431,-1.594 -6.308,-2.594 l -3.937,-1.819 h -10.8687 c -11.957,0 -12.9931,-0.207 -15.9331,-3.034 l -1.3806,-1.327 2.5315,-0.3 c 1.3924,-0.166 4.4903,-0.321 6.8822,-0.347 2.5211,-0.03 4.1666,-0.215 3.9135,-0.449 -0.2401,-0.222 -2.4611,-1.281 -4.9353,-2.355 l -4.4967,-1.953 -8.2759,0.08 c -7.2475,0.07 -8.5198,-0.03 -10.2345,-0.8 -1.0766,-0.482 -2.3254,-1.289 -2.7743,-1.797 -0.8038,-0.907 -0.7738,-0.925 2.024,-1.218 1.5633,-0.163 3.7425,-0.296 4.8452,-0.296 1.1026,0 1.9965,-0.155 1.9887,-0.346 0,-0.189 -1.5111,-1.021 -3.338,-1.849 l -3.3224,-1.504 h -7.8726 c -7.412,0 -7.9626,-0.05 -9.402,-1.027 -2.5067,-1.699 -2.2875,-2.183 1.01,-2.22 4.6325,-0.05 5.0462,-0.474 1.9092,-1.953 -2.4703,-1.164 -3.1762,-1.271 -9.1215,-1.373 -6.0313,-0.105 -8.5172,-0.577 -8.5172,-1.621 0,-0.188 0.6224,-0.577 1.3819,-0.864 3.308,-1.249 0.3341,-2.443 -6.0836,-2.443 -4.3675,0 -6.3458,-0.435 -6.3458,-1.397 0,-0.244 0.7125,-0.444 1.5842,-0.444 2.2627,0 2.4598,-0.817 0.4045,-1.677 -1.1718,-0.49 -2.987,-0.716 -5.4415,-0.677 -3.86,0.06 -6.5064,-0.408 -6.3576,-1.131 0.052,-0.235 0.535,-0.533 1.0804,-0.662 0.9605,-0.227 0.9644,-0.258 0.141,-1.003 -1.4394,-1.304 -3.2858,-1.755 -7.2084,-1.762 -4.2332,0 -5.4389,-0.423 -4.5046,-1.549 1.0074,-1.213 0.1044,-1.666 -3.3184,-1.672 -3.9122,0 -6.7635,-0.417 -6.7635,-0.976 0,-0.22 0.5311,-0.4 1.1784,-0.4 0.6733,0 1.0557,-0.199 0.8912,-0.463 -0.7138,-1.155 -3.3288,-1.937 -6.9904,-2.09 -2.1297,-0.09 -4.275,-0.289 -4.7695,-0.446 -1.1719,-0.372 -1.1562,-1.144 0.026,-1.144 0.5063,0 0.9212,-0.285 0.9212,-0.633 0,-0.696 -1.9417,-1.209 -4.5842,-1.209 -2.9021,0 -6.997,-0.99 -6.7503,-1.632 0.2766,-0.719 -2.9727,-1.589 -5.9322,-1.589 -1.9405,0 -2.114,-0.09 -1.9822,-1.037 0.1344,-0.968 -0.091,-1.062 -3.4241,-1.452 -1.9613,-0.228 -3.5677,-0.591 -3.5677,-0.805 0,-0.214 0.2075,-0.389 0.4606,-0.389 0.2532,0 0.4607,-0.189 0.4607,-0.421 0,-0.231 -1.6064,-0.559 -3.5677,-0.727 -4.6651,-0.401 -5.3671,-0.603 -4.7329,-1.367 0.5846,-0.704 -0.6551,-1.152 -3.2206,-1.162 -1.0753,0 -1.9052,-0.333 -2.452,-0.972 -0.6433,-0.751 -1.2305,-0.927 -2.6437,-0.792 -1.3846,0.131 -1.7604,0.03 -1.579,-0.448 0.1644,-0.428 -0.078,-0.579 -0.796,-0.488 -0.5689,0.08 -1.3441,-0.07 -1.7238,-0.304 -0.3797,-0.24 -1.5189,-0.441 -2.5329,-0.446 -1.4367,0 -1.8138,-0.173 -1.7199,-0.755 0.091,-0.548 -0.3758,-0.824 -1.7538,-1.045 -1.0309,-0.166 -2.0787,-0.175 -2.328,-0.03 -0.2492,0.154 -0.9265,-0.03 -1.5045,-0.408 -1.3885,-0.911 -5.8096,-2.21 -6.3602,-1.869 -0.2388,0.147 -0.6799,-0.03 -0.98,-0.393 -0.2989,-0.364 -1.4772,-0.907 -2.6164,-1.207 -3.7177,-0.981 -8.4912,-2.46 -9.6669,-2.995 -0.6329,-0.287 -2.2575,-0.459 -3.6107,-0.382 -2.418,0.138 -2.4559,0.162 -2.1584,1.38 0.8026,3.292 2.4911,5.978 5.0018,7.958 2.8617,2.257 16.4525,10.066 16.994,9.763 0.1906,-0.104 0.3459,-1.734 0.3459,-3.617 0,-1.977 0.1944,-3.425 0.4606,-3.425 0.2531,0 0.4606,0.155 0.4619,0.344 0,0.191 0.4189,1.031 0.9291,1.868 l 0.9278,1.521 1.3285,-0.946 c 1.4302,-1.019 2.7977,-1.245 2.7977,-0.463 0,0.266 -0.3327,1.125 -0.7373,1.909 -0.7007,1.354 -0.6955,1.409 0.1175,1.096 1.3675,-0.528 5.3528,-1.212 5.6046,-0.962 0.1305,0.131 -0.1305,0.624 -0.5637,1.107 -0.7673,0.848 -0.7203,0.886 1.4432,1.183 2.2223,0.306 3.7478,0.918 3.3302,1.337 -0.1174,0.117 -1.3571,0.51 -2.7495,0.866 l -2.5302,0.649 1.8412,0.98 1.8413,0.978 -1.8987,0.03 c -2.6894,0.03 -4.8386,0.522 -4.656,1.069 0.091,0.257 1.8022,1.445 3.8156,2.64 5.3789,3.192 12.8288,7.571 13.125,7.713 0.1409,0.07 0.1696,-1.701 0.065,-3.934 -0.2897,-6.056 -0.137,-6.322 1.8204,-3.193 l 1.6664,2.662 1.4589,-2.585 c 1.468,-2.601 5.0461,-6.854 5.4363,-6.462 0.1175,0.117 -0.4202,1.544 -1.1901,3.175 -1.498,3.17 -2.8369,7.747 -2.8369,9.695 v 1.191 l 1.9561,-1.361 c 2.0683,-1.439 7.4576,-3.961 7.1627,-3.353 -0.091,0.197 -1.0465,2.109 -2.114,4.248 -2.2588,4.525 -2.4454,5.439 -0.9056,4.434 1.3089,-0.855 9.1136,-3.621 9.4007,-3.334 0.1175,0.117 -0.3001,1.892 -0.9304,3.942 -0.7673,2.498 -0.967,3.728 -0.6068,3.727 0.2962,0 2.6099,-0.4 5.1414,-0.886 11.1493,-2.144 21.1607,-2.138 31.9628,0.03 7.2998,1.459 7.4081,1.728 0.7099,1.76 -6.5846,0.03 -12.3054,0.61 -16.5608,1.672 -2.8669,0.715 -9.8965,3.795 -9.8965,4.335 0,0.169 1.3975,0.558 3.107,0.865 1.7094,0.307 4.1431,0.908 5.4089,1.337 l 2.3019,0.781 -2.7625,0.303 c -1.519,0.167 -4.2632,0.326 -6.0993,0.353 -1.836,0.03 -3.3314,0.205 -3.3249,0.396 0,0.189 4.6964,3.037 10.4198,6.33 5.7247,3.291 12.282,7.067 14.5734,8.393 2.2902,1.325 4.2723,2.302 4.4041,2.17 0.1305,-0.132 0.3524,-3.702 0.4907,-7.934 l 0.2518,-7.694 1.4329,2.763 c 0.7881,1.519 1.6846,3.539 1.9926,4.488 0.3079,0.949 0.7112,1.726 0.8978,1.726 0.1853,0 0.7881,-0.608 1.3375,-1.352 1.9939,-2.696 11.6556,-8.602 15.5156,-9.484 1.3767,-0.315 1.3754,-0.311 -0.4607,1.203 -3.0391,2.505 -6.1462,5.98 -8.5642,9.579 -1.2566,1.87 -2.2171,3.466 -2.1362,3.547 0.078,0.08 1.669,-0.577 3.5259,-1.464 1.8583,-0.889 4.8544,-2.105 6.6578,-2.704 3.1553,-1.048 11.7952,-3.07 11.7952,-2.762 0,0.08 -1.502,0.98 -3.3367,1.994 -3.4437,1.901 -10.0127,6.344 -10.0127,6.774 0,0.133 1.7082,0.104 3.7973,-0.05 4.7969,-0.378 13.2268,0.407 19.9419,1.86 9.8287,2.126 9.5207,2.29 -4.5542,2.432 -6.937,0.07 -13.5047,0.281 -14.5956,0.467 l -1.9848,0.34 3.8522,1.113 3.8508,1.112 -4.1183,0.788 c -6.7648,1.294 -11.6843,3.012 -10.7918,3.767 0.1305,0.104 3.8548,2.43 8.285,5.162 4.4302,2.733 8.743,5.48 9.5821,6.105 0.8403,0.625 1.6037,1.059 1.6977,0.965 0.2584,-0.258 -3.4268,-6.185 -6.0966,-9.807 -1.3023,-1.766 -2.2823,-3.297 -2.1766,-3.402 0.3536,-0.354 7.3193,5.133 10.1131,7.965 1.519,1.54 3.7869,4.195 5.0383,5.902 1.2515,1.707 2.4415,3.103 2.6464,3.103 0.3993,0 0.642,-6.243 0.4241,-10.932 -0.078,-1.583 -0.026,-2.878 0.1175,-2.878 0.4215,0 4.2579,7.421 5.649,10.928 0.7268,1.832 1.4445,3.334 1.5933,3.338 0.5742,0 1.4902,-5.515 1.7551,-10.583 l 0.2754,-5.294 1.2997,4.213 c 0.7138,2.318 1.4393,5.593 1.6102,7.28 l 0.3119,3.067 5.0161,-5.093 c 2.76,-2.802 5.0906,-5.095 5.1793,-5.095 0.7464,0 -0.6955,8.147 -2.2275,12.576 -0.5089,1.472 -0.8312,2.77 -0.7164,2.885 0.1174,0.118 1.6272,-0.956 3.3628,-2.379 4.07,-3.335 7.2227,-5.346 12.633,-8.058 3.5493,-1.777 11.773,-5.024 12.7295,-5.024 0.1305,0 -1.836,1.536 -4.3585,3.413 -5.508,4.1 -10.1718,8.431 -13.6351,12.665 -1.4093,1.722 -2.5616,3.224 -2.5616,3.337 0,0.118 1.7095,-0.364 3.7987,-1.061 8.9687,-2.993 21.0719,-2.961 36.7049,0.105 2.6542,0.519 4.9156,1.033 5.0252,1.143 0.1044,0.104 -1.3375,0.201 -3.2153,0.201 -5.6268,0 -15.9566,0.884 -21.6343,1.845 -6.3876,1.082 -11.1624,2.582 -15.9658,5.017 l -3.5624,1.808 1.6115,0.662 c 0.8861,0.365 4.6795,1.853 8.4312,3.307 3.7503,1.455 6.7543,2.71 6.6747,2.79 -0.078,0.08 -25.8323,0.236 -57.2275,0.349 l -57.084,0.204 z m 224.7472,-65.696 -2.5472,-2.902 -6.141,-0.808 c -7.1902,-0.946 -8.4298,-0.963 -10.2828,-0.139 -1.1471,0.512 -1.2475,0.671 -0.5938,0.944 1.2828,0.534 21.7544,6.068 21.941,5.932 0.091,-0.06 -0.9747,-1.431 -2.3762,-3.027 z m -68.797,-4.027 c -1.1627,-1.534 -2.264,-2.446 -3.3445,-2.775 -0.886,-0.268 -4.4746,-1.285 -7.9744,-2.26 l -6.3628,-1.772 -1.348,1.134 c -1.6964,1.428 -1.6925,1.824 0.026,2.202 0.7543,0.165 5.4676,1.519 10.4733,3.005 5.0044,1.487 9.3616,2.714 9.6826,2.727 0.3197,0.01 -0.1971,-1.005 -1.151,-2.261 z m 92.6379,-7.149 c 26.3974,-1.951 61.6525,-5.253 61.1775,-5.731 -0.1396,-0.141 -1.3258,-0.663 -2.6346,-1.159 -3.2858,-1.246 -6.7765,-1.141 -27.9293,0.834 -30.5157,2.853 -33.5301,3.06 -44.173,3.054 -9.3498,0 -43.8625,-0.829 -69.3711,-1.652 -9.5743,-0.31 -9.7648,-0.298 -11.4181,0.724 -0.9252,0.571 -1.6194,1.1 -1.5424,1.174 0.381,0.368 22.3089,1.303 68.9613,2.939 15.8274,0.555 17.058,0.547 26.9297,-0.183 z m -132.3298,-4.353 c -1.0491,-1.253 -2.2601,-2.383 -2.6907,-2.511 -3.8482,-1.147 -19.7553,-5.531 -21.804,-6.01 -2.3985,-0.561 -2.726,-0.538 -4.0896,0.292 -0.8143,0.496 -1.2984,1.065 -1.0753,1.263 0.2245,0.2 4.9652,1.673 10.5347,3.273 5.5707,1.601 12.4072,3.585 15.1919,4.41 2.7847,0.824 5.238,1.513 5.452,1.53 0.214,0.01 -0.4698,-0.994 -1.519,-2.247 z m 116.9082,-2.759 c 0,-0.237 -0.2048,-0.559 -0.4554,-0.715 -0.2505,-0.154 -1.9339,-2.29 -3.7399,-4.746 -1.8047,-2.454 -3.92,-5.136 -4.6977,-5.959 -1.3819,-1.462 -2.6151,-1.952 -2.6151,-1.04 0,0.25 1.3937,3.254 3.0992,6.674 l 3.0992,6.22 h 2.6555 c 1.4602,0 2.6542,-0.195 2.6542,-0.434 z m -107.3953,-2.098 c 1.639,-2.903 1.455,-3.491 -0.9904,-3.155 -1.6912,0.232 -2.4037,0.08 -4.1105,-0.929 -1.1353,-0.666 -2.2719,-1.21 -2.525,-1.21 -0.9761,0 1.0569,4.805 2.7481,6.496 1.5359,1.536 3.6225,1.022 4.8778,-1.202 z m 88.9816,1.86 c 0,-0.118 -2.4494,-4.621 -5.4416,-10.013 -2.9935,-5.391 -6.4476,-11.66 -7.6769,-13.933 -1.2292,-2.272 -2.3084,-3.908 -2.3997,-3.635 -0.1697,0.511 8.9622,26.036 9.8026,27.394 0.2479,0.402 5.7156,0.581 5.7156,0.187 z m 35.9076,-0.161 c 0,-0.608 -10.4721,-12.374 -11.2916,-12.689 -1.314,-0.504 -2.6346,-0.331 -2.388,0.311 0.1305,0.33 2.0096,3.334 4.1836,6.676 l 3.9513,6.074 h 2.773 c 1.5242,0 2.7717,-0.167 2.7717,-0.372 z m -57.3463,-6.648 c -1.9025,-3.607 -5.2497,-10.081 -7.4393,-14.386 -2.1884,-4.304 -4.0544,-7.495 -4.1432,-7.091 -0.091,0.405 1.8217,6.762 4.2489,14.129 l 4.4119,13.392 1.4772,0.184 c 0.8117,0.104 2.2471,0.218 3.1892,0.258 l 1.7121,0.08 z m -20.9636,-7.826 c -7.3271,-14.666 -7.1992,-14.426 -7.5203,-14.104 -0.1983,0.199 6.9253,23.75 7.947,26.276 0.509,1.26 0.6264,1.296 5.4938,1.673 0.9304,0.08 0.3171,-1.361 -5.9205,-13.845 z m 94.8798,13.12 c 0,-0.19 -1.6899,-2.313 -3.753,-4.719 -2.0617,-2.405 -6.8508,-8.102 -10.6416,-12.659 -6.6852,-8.037 -8.1349,-9.616 -8.4964,-9.255 -0.2049,0.205 2.9296,5.206 9.5547,15.239 2.6738,4.052 5.4754,8.343 6.2232,9.535 l 1.361,2.171 2.8773,0.01 c 1.5816,0 2.8761,-0.139 2.8748,-0.329 z m -123.9143,-1.885 c 0.1174,-1.273 0,-1.506 -0.6904,-1.374 -0.5715,0.105 -0.8847,0.648 -0.9852,1.691 -0.1174,1.274 0,1.506 0.6903,1.375 0.5716,-0.105 0.8848,-0.648 0.9853,-1.692 z m 17.576,1.502 c 0,-0.375 -10.4407,-23.871 -11.7952,-26.543 -1.1105,-2.191 -1.8204,-2.902 -1.3859,-1.385 1.2958,4.513 8.3228,26.776 8.6465,27.391 0.3066,0.583 0.9904,0.805 2.4793,0.805 1.1301,0 2.0553,-0.118 2.0553,-0.268 z m 121.7025,-1.106 h 1.7825 l -2.2405,-2.648 c -2.8291,-3.343 -17.7705,-20.306 -20.1181,-22.841 -2.4937,-2.692 -1.8491,-1.241 1.8217,4.105 14.8566,21.637 15.0588,21.91 16.0284,21.65 0.5194,-0.14 1.746,-0.257 2.726,-0.26 z m 16.1419,-3.574 c -2.067,-2.767 -6.92,-8.622 -12.6251,-15.234 -7.72,-8.948 -8.7222,-10.03 -8.7378,-9.428 -0.026,0.894 7.1705,10.301 17.4847,22.867 2.1831,2.661 3.167,3.521 4.0283,3.521 h 1.1405 z m -228.0473,-3.306 c -0.9931,-1.254 -2.0971,-2.021 -3.6055,-2.505 -2.6269,-0.843 -20.4104,-5.387 -47.7485,-12.203 -27.2338,-6.788 -30.5301,-7.551 -31.3182,-7.248 -0.89,0.34 -0.873,1.669 0.026,1.669 0.6955,0 26.2237,6.651 50.631,13.191 7.0897,1.9 16.7553,4.473 21.4804,5.718 4.7238,1.246 9.0745,2.46 9.6669,2.697 2.0931,0.838 2.3149,0.502 0.873,-1.319 z m 39.4922,0.141 c 2.358,-2.862 3.5246,-7.383 3.4868,-13.523 -0.039,-6.457 -0.967,-10.905 -3.2336,-15.491 -2.6125,-5.287 -3.7687,-5.882 -12.4843,-6.417 l -5.1688,-0.319 -1.7812,1.791 c -2.0331,2.045 -3.505,5.572 -4.2371,10.156 -0.9121,5.712 0.8469,14.504 3.9644,19.826 0.9983,1.701 1.3675,1.995 2.1923,1.737 2.4062,-0.751 3.1696,-0.747 5.6268,0.03 1.4341,0.45 3.3171,1.301 4.1849,1.89 0.8678,0.589 1.6364,1.072 1.7068,1.072 0.065,0 -0.3653,-1.475 -0.9708,-3.278 -1.5346,-4.577 -2.1153,-10.53 -1.7708,-18.149 0.2962,-6.553 0.8651,-9.877 1.6886,-9.877 1.5267,0 3.6785,1.502 4.7355,3.307 2.0396,3.481 2.7012,7.145 2.5081,13.908 -0.1462,5.123 -0.3249,6.323 -1.1875,7.957 -1.2292,2.331 -1.6612,2.636 -2.8369,2.006 -0.8886,-0.475 -0.8926,-0.436 -0.1918,1.935 0.3941,1.331 0.809,2.576 0.9239,2.766 0.4606,0.761 1.5398,0.26 2.8447,-1.323 z m -17.2916,-5.889 c -3.1644,-2.663 -5.0422,-8.846 -4.6311,-15.251 0.368,-5.731 3.5637,-10.614 6.7086,-10.25 l 1.2462,0.144 0.3562,7.594 c 0.5364,11.404 0.3067,16.715 -0.7738,17.908 -1.1053,1.22 -1.2945,1.211 -2.9061,-0.145 z m 1.6573,-3.696 c 0.2832,-1.124 0.5128,-5.423 0.5102,-9.552 0,-11.341 -0.4985,-12.899 -2.6868,-8.529 -1.562,3.118 -2.1753,8.225 -1.5346,12.761 0.4972,3.513 1.9613,7.367 2.8004,7.367 0.2179,0 0.6276,-0.922 0.9108,-2.047 z m 32.9976,6.765 c -0.1683,-1.203 -0.6342,-3.326 -1.0348,-4.718 l -0.7281,-2.533 -1.057,4.143 c -0.582,2.28 -1.0714,4.285 -1.0896,4.459 -0.026,0.292 1.3349,0.604 3.3589,0.767 0.7646,0.07 0.8247,-0.168 0.5506,-2.118 z m -50.6832,-1.176 c 0.381,-0.582 0.8194,-1.684 0.9721,-2.448 l 0.278,-1.388 -2.803,-0.08 c -2.619,-0.08 -2.803,0 -2.8017,0.952 0,1.554 1.6847,4.021 2.743,4.021 0.5037,0 1.2292,-0.477 1.6116,-1.06 z m 29.7379,-2.852 c 1.3976,-1.548 1.8791,-3.509 1.8647,-7.596 -0.013,-4.432 -0.9956,-8.733 -2.4911,-10.921 l -1.0139,-1.484 -0.3275,1.223 c -0.7295,2.721 -1.1797,10.74 -0.7947,14.171 0.4423,3.948 1.3754,7.324 1.7172,6.218 0.1175,-0.379 0.5873,-1.105 1.0453,-1.611 z m 206.0306,-0.705 c 2.9753,-0.767 5.7182,-1.647 6.0953,-1.956 0.8,-0.655 4.3781,-8.143 7.1967,-15.063 3.0444,-7.473 8.5212,-25.204 8.5212,-27.588 0,-0.341 -4.9862,-0.494 -16.112,-0.494 h -16.1119 v 17.148 c 0,18.258 -0.2831,21.262 -2.2966,25.212 -0.7125,1.395 -0.8521,2.085 -0.4946,2.442 0.4085,0.409 5.101,1.475 7.2567,1.65 0.2988,0.03 2.9778,-0.583 5.9531,-1.351 z m -251.442,-2.863 c -1.3441,-4.207 -1.562,-6.175 -1.5607,-14.156 0,-4.684 0.1305,-8.983 0.278,-9.552 0.2179,-0.814 0.6094,-1.036 1.8229,-1.036 1.2515,0 1.6821,0.263 2.2576,1.376 2.1544,4.168 2.7742,15.888 0.9852,18.621 -0.6381,0.973 -1.1014,1.22 -1.9796,1.052 -1.0374,-0.199 -1.117,-0.105 -0.8482,0.99 0.1631,0.664 0.6003,1.678 0.9722,2.252 0.9487,1.468 2.1622,0.709 3.7125,-2.325 1.7669,-3.457 2.0618,-10.473 0.6707,-15.974 -1.1757,-4.648 -2.5628,-7.644 -3.9643,-8.561 -1.0662,-0.7 -9.9436,-1.706 -11.1076,-1.259 -1.2644,0.485 -2.8343,8.893 -1.6598,8.893 0.1957,0 0.9474,-1.356 1.669,-3.012 0.7216,-1.656 1.545,-2.934 1.8295,-2.84 0.3484,0.118 0.5611,2.781 0.6551,8.191 0.1461,8.549 -0.1175,11.931 -0.9292,11.931 -0.3562,0 -0.4241,-2.701 -0.2296,-9.271 0.1527,-5.176 0.1044,-9.09 -0.1175,-8.862 -2.127,2.198 -3.7046,16.832 -2.1413,19.856 0.8977,1.737 1.7433,2.242 6.0457,3.617 4.0805,1.304 4.0387,1.304 3.6446,0.07 z m 163.922,-0.596 c 3.0392,-0.145 5.9975,-0.362 6.5756,-0.479 2.8199,-0.578 4.0152,-7.554 1.7433,-10.178 -1.3623,-1.573 -1.7603,-1.232 -2.5002,2.14 -0.8521,3.879 -1.2893,4.164 -6.3954,4.164 -2.9113,0 -4.8283,-0.227 -5.803,-0.691 -0.8,-0.379 -4.0884,-3.253 -7.305,-6.385 -6.0888,-5.927 -8.375,-7.477 -10.3141,-6.99 -1.1092,0.278 -1.074,0.352 1.5789,3.377 1.4916,1.702 4.6429,5.551 7.0036,8.555 4.7225,6.012 6.3732,7.368 8.512,6.993 0.7594,-0.133 3.8665,-0.361 6.9043,-0.506 z m -147.3508,-2.857 c -0.1709,-0.95 -0.4188,-1.913 -0.5506,-2.141 -0.3993,-0.69 -1.4811,1.191 -1.4811,2.575 0,1.079 0.1944,1.293 1.1718,1.293 1.1027,0 1.1536,-0.105 0.8599,-1.727 z m 218.7237,-1.611 c 0.9134,-2.209 1.0283,-4.971 1.2788,-30.821 0.091,-8.786 -0.013,-15.869 -0.2257,-15.74 -0.2101,0.13 -0.3811,2.295 -0.3811,4.812 v 4.575 h -3.1892 -3.1905 l -0.7439,2.648 c -0.4097,1.456 -0.8194,2.872 -0.9108,3.148 -0.1709,0.516 -19.0023,1.107 -35.3817,1.11 h -8.2015 l 0.1449,1.497 0.1435,1.495 21.0941,0.118 21.0941,0.117 -0.3575,2.643 c -0.7986,5.914 -0.1044,11.741 2.0239,17.142 1.6742,4.236 4.7278,9.208 5.6543,9.208 0.1866,0 0.7033,-0.881 1.1483,-1.957 z m -232.9656,-2.371 c 1.2997,-3.529 0.4267,-13.056 -1.331,-14.514 -1.1862,-0.985 -1.5738,13.804 -0.4385,16.762 0.3784,0.987 0.753,0.512 1.7695,-2.248 z m -31.4891,-6 c 0.7686,-4.56 -0.1579,-13.985 -1.4537,-14.785 -0.2127,-0.132 -0.2897,3.963 -0.171,9.099 0.1175,5.136 0.2193,9.546 0.2206,9.799 0,1.374 0.9369,-1.34 1.4041,-4.113 z m -51.662,0.394 c -0.7282,-0.728 -10.1053,-2.949 -12.4751,-2.953 -2.6098,0 -1.117,0.838 3.2219,1.82 2.4689,0.559 5.1101,1.186 5.8695,1.396 0.7595,0.209 1.9953,0.4 2.7456,0.422 1.2436,0.04 1.2997,-0.03 0.6381,-0.685 z m 45.457,-8.236 c 0.026,-4.419 -0.1174,-7.936 -0.3157,-7.815 -0.8339,0.516 -1.9118,7.249 -1.6195,10.111 0.308,2.998 1.0688,5.748 1.592,5.744 0.1645,0 0.3198,-3.62 0.3432,-8.04 z m 202.1172,5.049 c 0.355,-1.186 0.5651,-5.64 0.5872,-12.518 0.039,-12.484 -0.1044,-12.11 4.9392,-12.11 4.468,0 4.3415,-0.356 4.1966,11.896 l -0.1174,10.432 -3.5677,0.416 -3.5677,0.416 v 1.77 1.77 h 4.5529 c 7.104,0 6.6003,1.181 6.5808,-15.443 0,-7.585 -0.026,-14.014 -0.052,-14.291 -0.078,-1.203 -2.5655,-1.569 -10.6286,-1.569 -7.8518,0 -8.2733,0.04 -8.7548,0.946 -0.6016,1.123 -0.4437,28.855 0.1697,29.804 0.2557,0.397 1.1861,0.552 2.7494,0.461 2.3202,-0.136 2.3737,-0.171 2.9165,-1.98 z m -217.146,-0.575 c 1.0544,-3.799 0.078,-16.033 -1.3558,-16.916 -0.9891,-0.612 -1.1274,13.981 -0.1683,17.607 0.4045,1.526 0.9813,1.263 1.5241,-0.691 z m -50.6141,-0.796 c 0,-0.376 -0.4658,-0.795 -1.0361,-0.933 -5.4402,-1.317 -19.6091,-4.371 -20.2798,-4.371 -1.2384,0 -0.6929,1.121 0.6368,1.308 0.612,0.09 4.8425,1.05 9.4006,2.144 4.5568,1.092 8.7,2.085 9.2063,2.207 1.6794,0.4 2.0722,0.332 2.0722,-0.355 z m 26.2394,-0.689 c 0.5833,-0.368 0.7125,-2.516 0.8261,-13.732 0.1174,-11.654 0.039,-13.369 -0.5925,-13.897 -0.5989,-0.498 -1.746,-0.481 -6.5794,0.104 l -5.8526,0.702 5.1779,0.06 5.1793,0.07 0.1174,10.013 c 0.154,13.611 0.1997,16.399 0.2793,16.802 0.091,0.462 0.612,0.426 1.4498,-0.104 z m -3.2218,-2.542 c 0,-0.531 -0.5885,-0.692 -2.5329,-0.692 -2.3449,0 -2.9883,0.311 -2.2249,1.075 0.1697,0.169 1.3089,0.307 2.5329,0.307 1.6703,0 2.2249,-0.172 2.2249,-0.69 z m -48.4506,-2.648 c -0.1814,-0.547 -4.2971,-1.558 -17.3242,-4.259 -5.1949,-1.078 -6.6851,-1.181 -5.9152,-0.411 0.3145,0.314 21.2833,5.15 22.5857,5.208 0.4802,0.03 0.762,-0.21 0.6537,-0.538 z m 38.7759,-1.151 c 0,-0.695 -0.2114,-1.576 -0.4607,-1.956 -0.4032,-0.613 -0.5037,-0.613 -0.9069,0 -0.5207,0.793 -0.612,2.464 -0.1592,2.915 0.7334,0.735 1.5333,0.232 1.5268,-0.959 z m 4.6103,-3.17 v -3.515 l 2.0722,0.284 c 1.8347,0.252 2.0709,0.183 2.0709,-0.601 0,-0.713 -0.381,-0.914 -1.9561,-1.027 l -1.9561,-0.142 -0.1344,-4.06 c -0.091,-2.926 -0.2884,-4.009 -0.6903,-3.876 -0.398,0.133 -0.5924,2.332 -0.6838,7.727 -0.1304,7.686 -0.039,8.726 0.8026,8.726 0.2857,0 0.475,-1.408 0.475,-3.516 z m 65.3702,-0.242 c 0,-1.273 -1.6286,-5.541 -2.4507,-6.424 -0.7386,-0.793 -1.2292,-0.911 -2.7482,-0.669 -2.4676,0.395 -2.632,0.537 -2.602,2.246 0.052,2.777 0.9957,4.656 2.5068,4.978 2.4076,0.515 5.2941,0.443 5.2941,-0.131 z m 61.1344,-0.478 c 0.6772,-0.677 0.7216,-3.333 0.078,-4.541 -1.0544,-1.97 -3.2062,-0.56 -3.2062,2.102 0,2.5 1.7238,3.844 3.1305,2.439 z m -147.4996,-0.635 c 0.5194,-1.355 0.2936,-5.133 -0.3379,-5.657 -0.9278,-0.769 -1.2241,-0.161 -1.2241,2.51 0,2.544 0.3171,3.875 0.9213,3.875 0.1984,0 0.4867,-0.328 0.6407,-0.728 z m 138.6144,-1.754 c 0,-1.601 -0.2219,-2.392 -0.7673,-2.735 -1.1719,-0.74 -2.2249,0.405 -2.2249,2.419 0,1.939 0.7294,2.892 2.0657,2.7 0.7842,-0.118 0.9265,-0.479 0.9265,-2.384 z m -71.1419,0.892 c 1.0387,-1.251 0.3484,-2.265 -1.994,-2.925 -2.8499,-0.805 -5.1309,-0.396 -6.1096,1.097 -0.4124,0.63 -0.6264,1.269 -0.475,1.419 0.2727,0.272 4.4837,0.901 6.8143,1.017 0.6642,0.03 1.4589,-0.24 1.7643,-0.608 z m -89.2895,-0.74 c 0,-0.237 -0.3106,-0.433 -0.6903,-0.433 -0.7125,0 -0.9148,0.543 -0.3967,1.062 0.368,0.368 1.087,-0.05 1.087,-0.629 z m -10.7304,-1.008 c -0.1318,-0.569 -0.475,-2.203 -0.7621,-3.629 -0.4606,-2.301 -0.6655,-2.623 -1.8047,-2.852 l -1.2853,-0.257 -0.2884,-15.877 c -0.3563,-19.546 -0.4398,-19.108 4.3728,-23.079 4.8817,-4.028 6.8913,-5.337 18.0888,-11.78 l 10.1223,-5.826 -0.1474,-3.203 c -0.2075,-4.488 0.4972,-5.897 4.3558,-8.712 4.2554,-3.104 13.2476,-9.455 18.4673,-13.041 3.7334,-2.567 4.2867,-3.123 4.549,-4.577 0.659,-3.639 1.9809,-5.046 8.6073,-9.156 3.0979,-1.921 5.341,-2.968 7.1353,-3.329 1.4393,-0.289 3.0313,-0.613 3.5376,-0.72 0.5064,-0.105 4.9614,-2.999 9.8979,-6.429 l 8.9766,-6.233 0.488,-2.686 c 0.2675,-1.477 0.8443,-3.231 1.2802,-3.896 1.0491,-1.6 4.1848,-3.855 9.3837,-6.747 5.5094,-3.064 9.9813,-4.592 14.7078,-5.022 3.5702,-0.325 4.0426,-0.5 7.5046,-2.772 l 3.6942,-2.426 v -3.969 c 0,-7.753 1.3598,-12.474 4.4616,-15.566 1.7864,-1.781 30.2899,-23.315 35.3543,-26.71 3.8012,-2.549 11.1858,-6.196 15.8822,-7.845 7.8165,-2.744 15.7335,-4.24 26.3556,-4.976 2.8121,-0.196 4.5007,-0.506 4.5229,-0.832 0.026,-0.288 0.065,-3.251 0.1174,-6.588 0.091,-7.346 0.1305,-7.401 6.3276,-11.61 8.0292,-5.448 14.8892,-10.312 21.3172,-15.113 3.5142,-2.626 7.4499,-5.313 8.747,-5.972 4.8582,-2.467 9.7151,-3.017 15.4777,-1.75 3.8599,0.85 10.2058,0.862 15.3289,0.03 3.5103,-0.571 4.3885,-0.571 6.5742,0 5.114,1.331 8.298,3.87 10.5751,8.432 2.897,5.803 1.5607,15.127 -2.9269,20.416 -0.5677,0.669 -0.5729,0.831 -0.039,1.019 0.3511,0.117 2.9165,0.972 5.7013,1.885 28.63,9.393 51.6332,33.803 60.0669,63.741 3.6251,12.869 4.5647,28.339 2.5159,41.431 -1.2814,8.19 -1.3192,8.746 -0.5859,8.746 0.7739,0 2.7652,2.017 3.6108,3.657 0.4019,0.778 0.7673,6.508 1.1835,18.582 0.3328,9.602 0.6864,17.541 0.7882,17.643 0.2832,0.283 2.1675,-6.359 2.1649,-7.634 0,-2.951 1.0465,0.604 2.9752,10.074 1.1575,5.679 2.1884,10.412 2.2927,10.515 0.2349,0.237 0.9422,-2.281 1.9457,-6.929 0.4254,-1.968 0.9187,-3.417 1.0974,-3.222 0.1788,0.196 1.5072,5.433 2.9544,11.635 1.4458,6.204 2.7886,11.447 2.9843,11.653 0.1945,0.205 0.4816,-0.416 0.6382,-1.381 0.2662,-1.649 8.452,-31.003 8.7195,-31.271 0.065,-0.07 1.6429,5.716 3.5011,12.854 1.8569,7.139 3.5311,13.147 3.7216,13.353 0.1892,0.205 0.7973,-1.452 1.3493,-3.683 0.5533,-2.231 1.9156,-7.474 3.0287,-11.652 1.1131,-4.178 2.2654,-8.528 2.5616,-9.667 l 0.5376,-2.073 1.1184,3.871 c 1.6011,5.541 1.9991,5.961 1.7786,1.884 -0.1044,-1.899 -0.3119,-6.146 -0.4672,-9.437 -2.4846,-53.043 -23.9323,-103.773 -59.9469,-141.787 -24.0668,-25.404 -55.4906,-45.44 -89.5779,-57.116 -13.3141,-4.561 -25.7696,-7.551 -39.9059,-9.581 -11.4337,-1.642 -18.3498,-2.126 -30.2925,-2.12 -11.2198,0 -17.3868,0.407 -28.6314,1.863 -46.9394,6.085 -92.724,28.807 -126.0661,62.567 -24.0315,24.333 -41.3622,52.756 -52.3092,85.786 l -2.9257,8.826 3.5298,0.521 c 1.9405,0.286 4.8139,0.972 6.385,1.526 l 2.8552,1.006 4.5098,-1.455 c 3.663,-1.181 5.0344,-1.414 7.2998,-1.24 3.7229,0.287 6.6173,1.643 9.3537,4.379 2.0422,2.043 4.0465,5.009 3.6512,5.404 -0.091,0.08 -1.3559,-0.581 -2.8239,-1.478 -3.5285,-2.159 -8.2967,-3.804 -11.0553,-3.816 -1.3115,0 -4.0048,0.591 -6.556,1.454 l -4.3284,1.465 -3.1109,-1.3 c -2.144,-0.894 -4.2071,-1.367 -6.6317,-1.52 -3.3171,-0.209 -3.5611,-0.159 -4.2305,0.87 -1.1888,1.829 -4.1901,16.329 -5.5629,26.871 -1.1601,8.917 -1.6455,17.262 -1.6455,28.312 0,19.198 1.8282,34.549 6.1997,52.037 2.1009,8.405 1.665,7.743 5.221,7.928 1.6925,0.09 5.0161,0.201 7.3858,0.251 4.2515,0.09 4.305,0.08 4.0662,-0.946 z m 24.0798,-159.435 c -3.0209,-0.493 -5.2236,-0.537 -9.6669,-0.198 -3.1645,0.243 -6.5834,0.286 -7.596,0.104 l -1.8412,-0.343 3.9134,-1.054 c 5.2341,-1.411 6.9383,-2.301 8.0462,-4.203 1.7525,-3.008 5.8304,-6.608 9.522,-8.405 8.6139,-4.196 16.1146,-5.093 26.1325,-3.13 5.1153,1.004 7.3141,1.031 12.231,0.156 1.3337,-0.238 1.348,-0.222 0.4307,0.462 -0.522,0.389 -2.2837,1.162 -3.9122,1.717 -2.7312,0.932 -3.4659,0.984 -9.4085,0.669 -3.5442,-0.186 -7.3768,-0.305 -8.516,-0.262 -6.7451,0.256 -18.7804,5.179 -21.0236,8.602 -0.7569,1.155 -0.7516,1.238 0.1044,1.895 1.4563,1.117 5.6516,2.879 8.1101,3.406 1.2566,0.269 2.2197,0.545 2.1388,0.613 -0.616,0.515 -5.4416,0.504 -8.6634,-0.03 z m 50.7041,-42.779 c -1.3558,-0.632 -3.9213,-1.591 -5.6986,-2.131 -3.3484,-1.016 -5.341,-1.03 -15.9357,-0.104 -3.3276,0.291 -9.4907,-0.449 -9.9527,-1.196 -0.1174,-0.195 0.9657,-0.493 2.4154,-0.661 7.9914,-0.927 10.6417,-2.808 14.5813,-10.36 3.047,-5.841 4.9378,-7.987 8.5094,-9.663 2.3593,-1.107 3.0209,-1.198 8.3176,-1.155 5.4193,0.04 6.1788,0.172 13.0662,2.187 6.3589,1.861 7.8582,2.138 11.5081,2.132 2.3084,0 5.4402,-0.308 6.9592,-0.674 3.6968,-0.893 3.7803,-0.877 2.525,0.458 -1.6546,1.763 -4.6795,3.368 -7.9039,4.196 -4.1927,1.077 -9.0275,0.611 -17.7601,-1.716 -8.6216,-2.295 -12.2167,-2.53 -15.1397,-0.99 -2.4441,1.288 -4.5372,3.833 -5.6934,6.921 -1.1209,2.993 -1.1405,3.736 -0.1044,4.068 3.0053,0.963 7.6965,3.759 10.3572,6.173 4.2371,3.845 4.2241,4.5 -0.052,2.511 z m -48.8616,201.6 c 0,-2.08 -1.087,-1.922 -1.2958,0.19 -0.1044,1.079 0.039,1.46 0.5755,1.46 0.5194,0 0.7203,-0.461 0.7203,-1.65 z m 111.772,1.098 c 0.7373,-0.739 0.7021,-2.434 -0.065,-3.071 -0.8704,-0.721 -1.224,-0.185 -1.224,1.859 0,1.83 0.3458,2.155 1.2892,1.212 z m 141.2399,-1.59 c 0.4502,-1.178 1.9169,-3.33 3.261,-4.781 1.8412,-1.988 2.4428,-2.984 2.4428,-4.045 0,-0.774 -0.201,-1.532 -0.4476,-1.683 -1.4458,-0.894 -6.8391,4.415 -8.0266,7.902 -1.2096,3.55 -0.9787,4.749 0.9161,4.749 0.809,0 1.2162,-0.47 1.8543,-2.142 z m -146.7571,-0.04 c -0.1605,-1.396 -1.4771,-1.969 -1.9143,-0.831 -0.4137,1.079 0.1475,2.093 1.1588,2.093 0.7112,0 0.8717,-0.265 0.7555,-1.262 z m 134.9097,0.975 c 1.194,-0.239 1.438,-0.504 1.438,-1.558 0,-0.831 -0.2767,-1.334 -0.8051,-1.454 -1.3298,-0.305 -55.8038,0.371 -56.1301,0.697 -0.1657,0.166 -0.214,0.384 -0.1044,0.484 0.2088,0.199 23.8828,1.132 41.6232,1.639 6.077,0.175 11.3855,0.354 11.7965,0.398 0.4124,0.04 1.3963,-0.05 2.1871,-0.206 z m -159.0195,-4.879 c 1.5333,-2.187 0.3863,-5.881 -1.8242,-5.881 -1.3206,0 -2.0618,1.194 -2.0618,3.319 0,1.856 1.1105,3.585 2.3019,3.585 0.4776,0 1.1901,-0.459 1.5841,-1.023 z m 8.8853,-0.452 c 0.3184,-0.263 0.5781,-1.183 0.5781,-2.044 0,-1.809 -1.1145,-2.465 -4.1876,-2.465 -2.1178,0 -2.5863,0.695 -1.9547,2.897 0.6759,2.359 3.6329,3.216 5.5642,1.612 z m -106.9125,-0.366 c 0,-0.337 -0.2597,-0.7 -0.5755,-0.805 -0.3432,-0.118 -0.5755,0.212 -0.5755,0.805 0,0.594 0.2323,0.92 0.5755,0.806 0.3158,-0.104 0.5755,-0.468 0.5755,-0.806 z m 110.2531,-1.841 c 0,-0.76 -0.2075,-1.381 -0.4607,-1.381 -0.5115,0 -0.6355,1.973 -0.1526,2.454 0.5193,0.521 0.6133,0.357 0.6133,-1.073 z m 67.5833,-1.037 0.1436,-1.726 h -12.8261 c -13.2672,0 -13.9301,0.09 -13.9301,1.901 0,1.95 0.5755,2.024 13.8426,1.783 l 12.6278,-0.231 z m 5.9805,1.865 c 1.3924,-1.392 -0.078,-4.285 -1.6729,-3.287 -0.9657,0.606 -1.241,2.301 -0.5155,3.175 0.6721,0.809 1.4511,0.849 2.1884,0.117 z m 96.6649,-4.857 0.1305,-5.178 h -1.6259 -1.6273 v 4.986 c 0,2.743 0.1475,5.135 0.3289,5.317 0.18,0.18 0.8534,0.266 1.4954,0.19 1.1653,-0.136 1.1692,-0.151 1.2984,-5.315 z m -146.1202,3.914 c 0.1526,-0.571 0.2805,-1.192 0.2831,-1.381 0,-0.19 -3.522,-0.346 -7.8334,-0.346 -6.5442,0 -7.8844,0.118 -8.1049,0.691 -0.1462,0.379 -0.1462,1.002 0,1.382 0.2205,0.574 1.528,0.69 7.8204,0.69 7.4472,0 7.5607,-0.01 7.8348,-1.036 z m 4.6638,-0.346 c 0,-1.738 -1.7904,-1.601 -1.9914,0.153 -0.1304,1.131 0,1.281 0.9213,1.149 0.7934,-0.117 1.0701,-0.447 1.0701,-1.302 z m -99.7902,-4.882 c -0.154,-0.152 -0.5507,-0.168 -0.8822,-0.04 -0.368,0.146 -0.2583,0.256 0.278,0.278 0.4854,0.01 0.7568,-0.09 0.6042,-0.243 z m 46.1591,-1.786 c 5.4441,-0.364 14.144,-0.987 19.335,-1.382 9.0014,-0.687 26.7862,-1.96 41.6611,-2.986 3.7973,-0.261 7.3676,-0.581 7.9326,-0.711 1.3963,-0.32 2.5655,-2.68 2.1844,-4.415 -0.5324,-2.423 -1.6742,-2.769 -7.3832,-2.232 -6.4124,0.601 -18.8027,2.262 -34.0377,4.564 -6.5833,0.996 -14.3515,2.146 -17.2628,2.558 -9.7752,1.383 -32.8084,5.258 -33.0929,5.568 -0.3054,0.33 5.1088,0.08 20.6635,-0.964 z m -75.6126,-1.843 c 0.5703,-0.163 1.0361,-0.48 1.0361,-0.703 0,-0.372 -3.1488,0.71 -3.6825,1.264 -0.2192,0.226 0.2623,0.118 2.6464,-0.561 z m 341.1543,-0.866 c 0.078,-0.728 -0.065,-1.54 -0.3301,-1.804 -0.5364,-0.536 -41.8816,-1.436 -44.8203,-0.977 -1.6533,0.258 -1.7264,0.346 -1.7264,2.066 v 1.794 l 16.4577,0.133 c 9.0523,0.08 19.5647,0.13 23.3634,0.117 h 6.9043 z m -334.7458,-18.777 c -0.1657,-10.927 -0.4176,-19.985 -0.5598,-20.127 -1.027,-1.026 -1.1823,2.348 -0.933,20.131 0.1461,10.469 0.381,19.222 0.5219,19.45 0.141,0.228 0.4855,0.414 0.7647,0.414 0.3667,0 0.4241,-5.502 0.2062,-19.868 z m 13.7317,18.941 c 2.5329,-0.278 9.1619,-1.109 14.7313,-1.846 5.5707,-0.738 14.1676,-1.856 19.1041,-2.486 4.9378,-0.63 15.295,-1.976 23.0176,-2.991 16.3181,-2.144 23.7091,-2.798 31.6013,-2.798 h 5.6869 v -40.437 c 0,-22.24 -0.137,-44.533 -0.3041,-49.539 l -0.3053,-9.102 -6.0248,0.191 c -4.6769,0.149 -6.385,0.381 -7.6365,1.036 -1.7995,0.942 -5.1896,3.506 -4.9522,3.744 0.091,0.09 0.9748,-0.138 1.9783,-0.496 1.9939,-0.71 9.2754,-0.912 10.2646,-0.284 0.3392,0.214 0.5467,0.884 0.4606,1.488 -0.1383,0.98 -0.4593,1.132 -2.9687,1.41 -6.8913,0.759 -8.5551,1.845 -9.556,6.239 -0.3875,1.697 -0.655,3.135 -0.595,3.197 0.065,0.07 1.0348,-0.214 2.1648,-0.608 2.7378,-0.96 9.1776,-1.368 10.4877,-0.666 0.5859,0.313 1.0022,0.979 1.0022,1.601 0,1.017 -0.1957,1.078 -4.258,1.347 -5.2888,0.35 -6.8756,0.891 -8.3737,2.854 -1.9613,2.572 -1.665,2.978 1.6195,2.218 1.605,-0.37 4.4993,-0.59 6.7895,-0.514 3.9213,0.131 3.9957,0.154 4.1327,1.334 0.1383,1.192 0.1174,1.203 -3.9135,1.524 -6.6238,0.528 -7.9248,0.997 -8.9192,3.213 -0.4671,1.041 -0.6498,1.957 -0.4071,2.042 0.2414,0.08 1.4863,-0.07 2.7638,-0.346 1.2789,-0.274 4.1654,-0.499 6.415,-0.499 3.7347,0 4.1158,0.08 4.3924,0.956 0.1671,0.526 0.1814,1.076 0.026,1.225 -0.1474,0.149 -2.6607,0.544 -5.5851,0.881 -6.7151,0.77 -8.0161,1.383 -8.0318,3.787 0,0.989 0.1357,1.063 1.489,0.79 0.8234,-0.167 3.7177,-0.43 6.4345,-0.587 4.9039,-0.284 4.9405,-0.278 5.3607,0.82 0.2322,0.608 0.2897,1.233 0.1305,1.389 -0.1645,0.157 -2.6608,0.517 -5.5486,0.8 -3.1997,0.315 -5.6816,0.798 -6.3511,1.236 -0.9865,0.647 -2.2431,2.863 -1.8477,3.259 0.091,0.09 1.3858,-0.04 2.8904,-0.291 1.5033,-0.247 4.532,-0.449 6.7308,-0.452 3.6577,0 4.0231,0.08 4.3036,0.964 0.1684,0.533 0.1305,1.125 -0.091,1.316 -0.214,0.192 -2.7273,0.566 -5.5838,0.831 -5.6203,0.522 -7.2554,1.184 -7.7447,3.129 -0.1605,0.641 -0.1892,1.27 -0.065,1.396 0.1305,0.131 1.9587,0.01 4.0714,-0.251 2.1127,-0.265 5.0383,-0.482 6.4998,-0.482 2.6321,0 2.6595,0.01 2.6595,1.344 0,1.323 -0.052,1.349 -3.1071,1.65 -6.5781,0.643 -8.6085,1.097 -9.4372,2.11 -0.4436,0.54 -0.8051,1.342 -0.8051,1.781 0,0.732 0.5728,0.78 6.9043,0.577 l 6.9057,-0.221 v 1.172 c 0,1.279 -0.2571,1.358 -6.2154,1.935 -5.7403,0.555 -6.1879,0.696 -6.9539,2.177 -0.3954,0.764 -0.5468,1.541 -0.3354,1.724 0.2114,0.182 3.0614,0.15 6.3341,-0.08 3.2715,-0.222 6.2232,-0.297 6.5599,-0.169 0.6342,0.244 0.8743,2.563 0.2649,2.569 -1.5007,0.01 -11.1036,0.988 -11.7378,1.188 -0.612,0.19 -0.8064,0.754 -0.8064,2.341 0,1.675 0.1383,2.037 0.6955,1.823 0.3823,-0.147 3.1488,-0.405 6.1488,-0.575 l 5.4533,-0.308 0.3184,1.27 c 0.1748,0.7 0.2505,1.34 0.1657,1.424 -0.078,0.09 -2.5289,0.377 -5.4311,0.648 -7.4668,0.702 -7.2228,0.612 -7.425,2.735 l -0.1736,1.81 6.6069,-0.267 6.6055,-0.268 -0.1514,1.334 -0.1527,1.334 -5.9243,0.526 c -6.3028,0.559 -6.7165,0.749 -6.7282,3.07 v 1.287 l 6.445,-0.32 6.445,-0.318 v 1.449 c 0,1.193 -0.184,1.451 -1.0361,1.462 -1.8973,0.03 -10.1719,0.898 -11.0188,1.165 -0.5637,0.18 -0.8351,0.718 -0.8351,1.659 v 1.392 l 6.445,-0.331 6.445,-0.333 v 1.4 c 0,1.602 -0.2401,1.673 -7.5959,2.216 -2.2784,0.168 -4.5516,0.59 -5.0514,0.935 -1.1196,0.778 -4.0074,0.826 -4.7538,0.08 -0.3458,-0.346 -0.552,-2.067 -0.552,-4.604 0,-3.292 -0.1305,-4.051 -0.6903,-4.051 -0.3798,0 -7.1641,1.359 -15.0771,3.019 -7.9118,1.66 -25.1211,5.178 -38.2421,7.819 -13.1211,2.641 -24.072,4.934 -24.3356,5.097 -0.5833,0.36 -0.065,4.862 0.6055,5.278 0.2532,0.157 0.9134,0.221 1.4667,0.144 0.5533,-0.08 3.077,-0.368 5.6086,-0.647 z m 225.6907,-0.454 c 0.2596,-2.503 1.3479,-2.396 -27.1151,-2.656 -14.5264,-0.131 -27.6004,-0.09 -29.0554,0.09 -2.6099,0.326 -2.6438,0.35 -2.6438,1.831 0,0.826 0.1396,1.641 0.3106,1.812 0.1709,0.171 13.3767,0.257 29.3477,0.192 l 29.0359,-0.117 z m 43.7645,-1.542 c -0.1044,-1.718 -0.5154,-3.428 -0.9852,-4.144 l -0.7986,-1.22 h -13.0192 -13.0193 l -2.1675,1.376 c -1.1927,0.757 -3.0457,1.818 -4.1183,2.358 -2.4754,1.249 -2.5198,1.296 -1.7068,1.808 1.3297,0.842 4.9991,0.485 7.3689,-0.716 2.2771,-1.154 2.3371,-1.159 13.1901,-1.036 l 10.904,0.117 0.3941,1.612 c 0.6564,2.685 0.7242,2.761 2.465,2.761 h 1.6794 z m -294.4967,1.077 c 4.883,-1.008 6.3876,-1.539 5.8591,-2.069 -0.2936,-0.292 -12.3628,2.833 -12.7974,3.313 -0.1344,0.149 0.2741,0.158 0.9069,0.01 0.6329,-0.14 3.3472,-0.707 6.0314,-1.262 z m 158.658,0.175 c 1.3623,-0.365 1.3062,-0.903 -0.2297,-2.225 l -1.2671,-1.088 -0.1305,-38.205 c -0.1383,-42.215 -0.3314,-39.375 2.7299,-39.987 1.8335,-0.367 2.6543,-1.915 1.4824,-2.793 -2.0892,-1.563 -6.5925,0.47 -7.5659,3.416 -0.4189,1.271 -0.4998,10.688 -0.3354,39.007 0.2349,40.439 0.1827,39.639 2.7182,41.415 1.207,0.845 1.177,0.84 2.5929,0.46 z m 16.1589,-3.34 c 0.4919,-0.312 0.4162,-0.539 -0.3602,-1.083 -0.5389,-0.379 -1.1405,-1.286 -1.3336,-2.015 -0.1945,-0.731 -0.2689,-18.825 -0.1671,-40.211 l 0.1866,-38.883 2.161,6.428 c 2.0526,6.104 6.1801,15.03 8.5968,18.586 1.4981,2.205 1.4028,1.72 -0.458,-2.31 -9.5951,-20.781 -11.5773,-46.524 -5.2784,-68.541 2.4441,-8.541 5.3658,-15.2 10.2019,-23.249 5.4206,-9.021 12.5938,-17.546 20.5134,-24.379 2.0435,-1.763 3.6394,-3.28 3.5468,-3.371 -0.091,-0.09 -1.7995,0.759 -3.7947,1.892 -7.1288,4.044 -9.1958,5.409 -48.247,31.836 -8.3372,5.643 -25.2268,17.425 -34.882,24.333 -5.6529,4.045 -10.301,8.298 -8.6216,7.888 2.6399,-0.643 13.0101,-6.219 25.0898,-13.491 l 12.89,-7.759 1.8413,-3.022 c 2.3306,-3.826 3.0979,-4.664 6.214,-6.781 3.1266,-2.124 10.4473,-6.236 11.8722,-6.668 0.9513,-0.29 1.0244,-0.205 0.7556,0.868 -0.1631,0.652 -0.1814,1.187 -0.039,1.187 0.8338,0 5.7755,-3.411 10.1758,-7.023 2.7977,-2.295 5.3841,-4.4 5.7481,-4.675 0.3654,-0.276 -0.3445,0.741 -1.5776,2.261 -3.2127,3.96 -5.7273,7.99 -8.76,14.04 -8.0213,16.006 -11.2693,32.404 -9.907,50.011 l 0.5403,6.968 -1.1823,1.183 -1.1822,1.182 v 40.315 c 0,43.387 -0.052,42.455 2.3553,44.14 1.1875,0.831 2.1597,0.939 3.1006,0.343 z m -177.1566,-0.991 c 7.3297,-1.996 8.2771,-2.329 8.2771,-2.907 0,-0.418 -1.8243,0 -6.0809,1.413 -3.3446,1.105 -6.1749,2.105 -6.2911,2.221 -0.3967,0.397 0.6538,0.21 4.0949,-0.727 z m 25.1315,-2.493 c 11.1676,-2.306 68.7787,-14.83 71.1876,-15.476 l 1.7264,-0.463 v -4.816 c 0,-2.648 -0.1762,-4.815 -0.3915,-4.815 -0.3654,0 -8.6047,2.333 -29.8854,8.465 -4.8778,1.406 -17.0997,4.746 -27.1607,7.423 -10.0596,2.677 -18.9631,5.082 -19.7865,5.344 -1.4459,0.459 -1.4955,0.56 -1.4955,2.971 0,1.373 0.078,2.497 0.167,2.497 0.091,0 2.6295,-0.509 5.6386,-1.13 z m 326.2717,-1.005 c 1.6859,-0.231 2.1348,-0.475 2.1348,-1.166 0,-0.478 -0.2584,-0.951 -0.5755,-1.049 -0.3158,-0.09 -11.9165,-0.291 -25.7788,-0.43 l -25.2046,-0.253 v 1.361 1.359 l 19.6796,0.131 c 10.8243,0.07 21.4647,0.175 23.6439,0.236 2.1806,0.07 4.9248,-0.03 6.1006,-0.184 z m -98.7659,-2.43 0.1449,-2.032 -21.7818,0.306 c -11.9793,0.168 -25.848,0.305 -30.8198,0.305 h -9.0379 l -0.2114,1.107 c -0.5219,2.731 -2.2523,2.594 31.0873,2.463 l 30.4739,-0.117 z m -111.13,-3.024 c 2.2562,-0.357 4.3872,-0.934 4.7343,-1.281 0.3471,-0.347 0.7595,-1.42 0.9147,-2.381 l 0.2845,-1.752 -1.1053,0.71 c -0.6081,0.39 -4.5228,1.361 -8.6999,2.16 -12.4033,2.367 -11.9701,2.244 -11.9701,3.412 v 1.03 l 5.8696,-0.624 c 3.2284,-0.342 7.716,-0.915 9.9722,-1.274 z m -60.9556,-16.543 17.2628,-5.206 -0.1709,-23.655 c -0.091,-13.01 -0.2323,-23.725 -0.3067,-23.81 -0.078,-0.09 -6.0065,3.257 -13.1797,7.425 -18.038,10.484 -20.6935,12.008 -29.6153,17.001 -12.3824,6.93 -30.1568,16.701 -32.7993,18.031 l -2.4167,1.216 v 13.035 c 0,7.169 0.1044,13.142 0.2362,13.272 0.3054,0.306 38.7719,-10.611 60.9896,-17.309 z m -56.1588,4.489 c 0,-3.25 0.1384,-7.02 0.3015,-8.381 l 0.2975,-2.472 2.5172,-1.115 c 1.3858,-0.612 2.572,-1.053 2.6386,-0.979 0.065,0.08 0.1944,3.947 0.287,8.604 l 0.1697,8.469 -1.6286,0.565 c -0.8951,0.31 -2.2927,0.711 -3.107,0.89 l -1.4798,0.325 z m 7.3559,-4.18 c 0,-4.241 -0.1305,-8.164 -0.2766,-8.717 -0.231,-0.864 0.1304,-1.207 2.538,-2.423 l 2.8082,-1.419 v 3.849 c 0,2.115 0.1344,6.341 0.2989,9.39 l 0.2975,5.544 -2.5551,0.743 c -1.4054,0.41 -2.679,0.744 -2.8303,0.744 -0.1514,0 -0.278,-3.47 -0.2806,-7.711 z m 7.0166,-4.032 0.1305,-9.546 3.6825,-2.009 c 2.0252,-1.106 3.9421,-2.013 4.2579,-2.017 0.4437,0 0.5755,2.314 0.5755,10.073 v 10.078 l -1.7342,0.693 c -0.9539,0.382 -2.6242,0.934 -3.7112,1.227 -1.0884,0.293 -2.2797,0.648 -2.649,0.79 -0.5768,0.221 -0.6538,-1.08 -0.5468,-9.289 z m 10.4824,1.718 c 0,-2.255 -0.1174,-6.878 -0.2753,-10.273 l -0.274,-6.173 3.736,-1.96 3.7347,-1.961 -0.1175,11.125 -0.1305,11.123 -2.3006,0.781 c -4.9013,1.665 -4.3741,1.986 -4.3741,-2.662 z m 8.6478,-10.035 c -0.1175,-9.184 -0.026,-10.944 0.5598,-11.456 0.6916,-0.605 5.2771,-3.011 5.739,-3.011 0.1345,0 0.2454,5.264 0.2454,11.697 v 11.696 l -2.8513,0.963 c -1.5685,0.53 -3.0118,0.963 -3.2062,0.963 -0.1957,0 -0.4137,-4.883 -0.4867,-10.852 z m 8.6268,4.261 c -0.1631,-2.071 -0.2322,-7.485 -0.154,-12.031 l 0.1423,-8.264 3.6838,-1.95 3.6825,-1.95 v 12.746 12.746 l -3.5298,1.235 -3.5286,1.235 z m 9.4255,-12.452 v -12.976 l 5.6399,-3.055 c 3.1018,-1.68 5.6777,-3.018 5.7247,-2.971 0.039,0.04 0.1305,6.289 0.1788,13.873 l 0.091,13.789 -1.5515,0.633 c -0.8535,0.348 -3.4725,1.319 -5.8187,2.158 l -4.2671,1.526 z m -67.6773,35.04 c 0,-0.838 -0.091,-0.903 -0.4541,-0.344 -0.5768,0.892 -0.5768,1.38 0,1.38 0.2531,0 0.458,-0.465 0.4541,-1.036 z m 345.9929,-5.067 c 0.6342,-3.588 0.7034,-6.271 0.4411,-17.144 -0.8025,-33.268 -1.0648,-37.058 -2.5629,-37.058 -0.2009,0 -0.9252,1.502 -1.6115,3.338 -0.6864,1.834 -2.1427,5.42 -3.2363,7.966 l -1.9874,4.63 0.415,13.094 c 0.2271,7.202 0.5572,14.647 0.7334,16.546 l 0.3197,3.453 0.8051,-2.992 c 0.4437,-1.646 0.826,-2.516 0.8508,-1.934 0.052,1.273 3.0444,13.274 3.77,15.125 0.5063,1.296 0.5167,1.299 0.9108,0.27 0.2205,-0.571 0.7386,-2.954 1.1522,-5.294 z m -13.6142,4.723 c 0.873,-0.875 0.9173,-1.493 0.8625,-12.085 -0.039,-6.14 -0.1879,-14.168 -0.3458,-17.838 l -0.2871,-6.675 -1.5659,2.302 c -0.8612,1.265 -2.8003,3.814 -4.3101,5.663 l -2.7443,3.362 0.3354,12.75 c 0.184,7.013 0.4267,12.906 0.5389,13.096 0.1174,0.189 1.6429,0.345 3.3993,0.345 2.5825,0 3.3733,-0.176 4.1171,-0.92 z m -239.9874,-0.547 c -0.1475,-0.368 -0.2571,-0.258 -0.2793,0.278 -0.013,0.485 0.091,0.757 0.2427,0.604 0.1527,-0.153 0.1684,-0.551 0.039,-0.882 z m 45.8354,-4.044 c 0.1893,0 0.3445,-0.866 0.3445,-1.908 0,-1.739 -0.091,-1.874 -1.0361,-1.623 -0.5689,0.15 -5.3162,1.147 -10.549,2.216 l -9.5129,1.945 -0.1892,1.292 c -0.1044,0.711 -0.1174,1.365 -0.026,1.453 0.091,0.09 4.7656,-0.633 10.3937,-1.602 5.6282,-0.968 10.3885,-1.766 10.5791,-1.773 z m -145.533,2.349 c 3.4202,-1.176 7.3128,-3.193 7.3128,-3.79 0,-0.27 -0.1553,-0.412 -0.3458,-0.317 -0.8495,0.426 -6.967,3.307 -8.6308,4.064 -2.4232,1.102 -1.485,1.127 1.6638,0.04 z m 0.5037,-3.797 c 4.8635,-2.734 6.6121,-3.979 6.1854,-4.406 -0.1175,-0.117 -1.211,0.506 -2.4389,1.377 -1.2267,0.872 -3.8365,2.458 -5.7991,3.526 -3.3093,1.802 -4.0375,2.319 -3.2623,2.319 0.167,0 2.5589,-1.267 5.3149,-2.816 z m -5.9335,0.135 c 1.0583,-0.714 3.3746,-2.093 5.1466,-3.065 3.7765,-2.07 7.2789,-4.392 7.0166,-4.655 -0.2244,-0.224 -10.0466,5.613 -12.7856,7.596 -2.4585,1.782 -1.9744,1.878 0.6224,0.118 z m -1.4745,-4.992 c 11.3972,-6.272 10.8073,-5.896 14.2628,-9.1 l 2.9465,-2.732 -2.3019,1.327 c -9.3276,5.375 -24.6278,14.806 -24.6278,15.18 0,0.582 1.3375,-0.07 9.7204,-4.675 z m 107.668,3.3 c 0,-0.38 -0.2075,-0.691 -0.4606,-0.691 -0.2532,0 -0.4607,0.311 -0.4607,0.691 0,0.38 0.2075,0.69 0.4607,0.69 0.2531,0 0.4606,-0.31 0.4606,-0.69 z m 35.5161,-1.186 c 5.3998,-1.033 9.971,-2.12 10.1602,-2.417 0.3105,-0.488 0.5206,-3.54 0.2427,-3.527 -0.065,0 -1.1497,0.319 -2.4167,0.706 -1.2658,0.385 -5.927,1.53 -10.3572,2.547 -10.3168,2.364 -9.6669,2.132 -9.6669,3.447 0,1.505 0.3054,1.487 12.0379,-0.756 z m 143.329,0.494 c 19.5791,-4.135 35.7419,-14.632 47.9756,-31.158 6.9552,-9.395 11.606,-19.999 14.0423,-32.021 0.9239,-4.558 1.0478,-6.512 1.0348,-16.231 -0.013,-10.213 -0.1044,-11.484 -1.2501,-16.829 -5.067,-23.699 -19.155,-43.362 -39.7532,-55.484 -13.2685,-7.809 -26.7693,-11.228 -40.8037,-10.333 -24.8849,1.588 -46.5676,14.174 -60.067,34.869 -2.8095,4.308 -7.4381,13.703 -8.8513,17.968 -5.4403,16.421 -6.0771,33.727 -1.8465,50.139 2.4559,9.523 5.8722,17.178 11.3711,25.476 12.8157,19.341 32.8424,31.789 55.8208,34.698 4.1627,0.527 17.8213,-0.143 22.3272,-1.094 z m -20.4586,-27.215 c -19.0636,-2.21 -36.4413,-16.694 -42.8798,-35.74 -0.7373,-2.183 -1.3402,-4.342 -1.3402,-4.802 0,-1.052 -0.091,-1.045 -2.4349,0.169 -2.9883,1.547 -9.0419,1.734 -12.1946,0.378 -4.7421,-2.04 -7.9587,-6.87 -8.2797,-12.429 -0.4032,-7.001 3.1814,-12.366 9.556,-14.302 4.6442,-1.411 7.9913,-0.957 12.9526,1.753 0.1592,0.09 0.432,-0.598 0.6068,-1.524 0.5938,-3.167 2.9818,-9.844 4.8831,-13.654 4.6272,-9.276 12,-16.825 21.6108,-22.129 3.8378,-2.12 11.9779,-4.844 15.6004,-5.223 1.5476,-0.161 2.8134,-0.362 2.8134,-0.447 0,-0.08 -0.8847,-1.038 -1.9665,-2.121 -3.0653,-3.069 -3.7869,-4.938 -3.7882,-9.794 0,-3.688 0.1383,-4.38 1.2632,-6.292 2.5302,-4.303 6.9095,-6.832 11.8252,-6.826 3.2871,0 5.4768,0.826 7.746,2.91 5.6621,5.198 5.6986,13.103 0.091,18.606 -1.0962,1.074 -2.3672,2.072 -2.8252,2.217 -1.6429,0.522 -0.766,1.026 3.4933,2.01 4.2279,0.977 9.8391,2.929 12.8248,4.464 6.3406,3.257 15.0901,11.043 19.0767,16.977 3.9957,5.945 7.4994,14.451 8.2341,19.989 0.1722,1.297 0.4854,2.465 0.6968,2.595 0.2114,0.131 1.271,-0.233 2.3567,-0.808 1.575,-0.835 2.7116,-1.045 5.6542,-1.045 4.1418,0 6.3263,0.856 8.9988,3.529 6.2179,6.218 3.5259,17.824 -5.0292,21.689 -2.9844,1.348 -8.3059,1.337 -10.9053,-0.03 l -1.8725,-0.978 -1.288,3.995 c -4.8413,15.012 -14.3972,26.114 -28.005,32.535 -8.3724,3.952 -17.8174,5.437 -27.4713,4.318 z m 18.2129,-11.683 c 13.3141,-3.372 23.5317,-11.781 29.9115,-24.62 7.2958,-14.683 5.9778,-32.493 -3.4607,-46.774 -2.4663,-3.732 -8.6856,-9.865 -12.6865,-12.512 -3.9539,-2.615 -8.863,-4.774 -14.0501,-6.182 -5.4624,-1.481 -16.3455,-1.47 -21.8666,0.03 -10.5321,2.848 -19.2529,9.141 -25.3926,18.318 -4.8256,7.215 -6.9291,13.902 -7.3728,23.438 -0.4724,10.126 1.5229,18.693 6.3237,27.162 3.993,7.044 13.412,15.534 20.9558,18.887 8.0866,3.594 18.8783,4.476 27.6383,2.259 z m -14.7874,-3.922 c -7.7226,-1.177 -14.8631,-4.712 -20.8058,-10.302 -9.9487,-9.359 -14.8004,-22.336 -13.4433,-35.955 2.9857,-29.962 36.4531,-45.569 61.6199,-28.735 6.4084,4.286 10.8896,9.501 14.3058,16.647 9.7883,20.478 1.0936,45.605 -18.9931,54.887 -1.8765,0.867 -4.9496,2.006 -6.8326,2.531 -3.9552,1.105 -11.7052,1.558 -15.8509,0.927 z m 13.8113,-4.346 c 4.2397,-1.119 10.7147,-4.47 14.1023,-7.299 3.9252,-3.278 6.92,-7.193 9.141,-11.949 2.5276,-5.415 3.2401,-8.509 3.4685,-15.067 l 0.201,-5.754 -0.6486,3.929 c -1.5124,9.154 -6.415,17.293 -13.7278,22.79 -6.5259,4.906 -11.1754,6.247 -21.5691,6.223 -5.7639,-0.01 -7.7526,-0.19 -10.0297,-0.899 -8.5015,-2.646 -16.3989,-11.611 -18.924,-21.48 -1.1248,-4.401 -1.2175,-11.977 -0.197,-16.318 2.204,-9.386 8.8669,-17.523 17.9088,-21.872 5.388,-2.591 10.5464,-3.601 16.8218,-3.296 2.9112,0.142 6.0052,0.474 6.8743,0.737 2.2066,0.667 2.3345,0.239 0.1957,-0.658 -4.1914,-1.759 -8.1871,-2.531 -13.0453,-2.525 -10.1797,0.01 -18.3303,3.535 -25.4578,10.994 -4.0009,4.189 -7.0857,9.86 -8.6634,15.93 -1.3206,5.082 -1.3271,13.731 -0.013,18.736 3.8078,14.508 15.1802,25.662 28.8245,28.271 3.9252,0.75 10.9052,0.517 14.7378,-0.493 z m 3.3497,-13.364 c 6.2376,-1.97 11.8814,-6.272 15.6774,-11.948 4.3128,-6.448 5.5446,-12.963 3.8169,-20.182 -2.5681,-10.729 -9.3433,-18.454 -19.0376,-21.709 -7.0753,-2.375 -14.101,-1.919 -21.0079,1.36 -2.6203,1.245 -4.3115,2.516 -7.2058,5.414 -3.9305,3.936 -5.9205,7.145 -7.2893,11.755 -4.4002,14.824 5.0944,31.597 20.2367,35.755 3.9174,1.076 10.6339,0.874 14.8096,-0.445 z m -6.0744,-3.342 c -0.3197,-1.527 -1.1666,-7.48 -1.1797,-8.286 0,-0.317 0.2663,-0.576 0.6029,-0.576 0.5912,0 2.161,6.629 2.1531,9.092 0,1.476 -1.2566,1.293 -1.5763,-0.23 z m -14.5395,-1.047 c 0,-0.596 3.3772,-7.278 4.2985,-8.505 2.2757,-3.031 0.3536,3.017 -2.3045,7.25 -1.0375,1.652 -1.994,2.254 -1.994,1.255 z m 25.8858,-8.005 c -3.4815,-3.341 -4.3754,-5.224 -1.3845,-2.919 2.114,1.627 5.8826,5.419 5.8826,5.916 0,0.979 -1.1549,0.209 -4.4981,-2.997 z m -36.4726,-2.041 c 0,-0.73 1.6076,-1.84 5.05,-3.488 6.2859,-3.009 5.9883,-1.449 -0.3693,1.939 -3.6355,1.936 -4.6807,2.282 -4.6807,1.549 z m 41.3139,-7.592 c -4.7904,-1.242 -6.5194,-2.429 -2.8761,-1.972 3.5533,0.445 8.7469,1.845 8.7469,2.358 0,0.803 -1.7238,0.69 -5.8708,-0.386 z m -44.9977,-5.139 c 0,-0.555 0.702,-0.689 3.5676,-0.685 1.9626,0 4.3454,0.133 5.2941,0.291 3.3785,0.558 1.6468,1.086 -3.5676,1.086 -4.3989,0 -5.2941,-0.118 -5.2941,-0.692 z m 40.4487,-4.527 c 1.1614,-1.401 9.5038,-3.421 9.8196,-2.377 0.1344,0.441 -5.1401,2.142 -8.7274,2.814 -1.5619,0.293 -1.6624,0.252 -1.0922,-0.437 z m -31.6718,-4.225 c -2.8304,-1.526 -5.7586,-3.856 -5.3528,-4.262 0.3236,-0.324 6.4515,3.068 8.1205,4.494 2.1532,1.841 0.8822,1.734 -2.7677,-0.232 z m 27.1307,-2.705 c 0,-0.73 3.5141,-5.605 4.9665,-6.889 1.8348,-1.621 1.9744,-0.513 0.231,1.822 -2.0905,2.799 -4.6142,5.706 -4.9535,5.706 -0.1344,0 -0.244,-0.288 -0.244,-0.639 z m -18.3238,-2.007 c -1.3427,-1.904 -3.7725,-6.606 -3.7725,-7.301 0,-1.335 1.3362,0.03 3.1096,3.18 2.0749,3.684 2.713,5.387 2.0161,5.387 -0.2531,0 -0.8625,-0.571 -1.3532,-1.266 z m 9.3968,-1.764 c -0.779,-2.031 -0.065,-8.939 0.9317,-8.939 0.4711,0 0.629,0.781 0.6251,3.107 0,5.193 -0.7451,7.949 -1.5568,5.832 z m 58.0926,30.924 c 5.6582,-2.944 6.2493,-11.813 1.0231,-15.351 -4.5216,-3.062 -9.5194,-2.021 -12.3224,2.568 -1.2266,2.007 -1.4367,6.729 -0.3889,8.735 0.7047,1.349 2.7182,3.35 4.1836,4.159 1.3128,0.724 6.034,0.655 7.5046,-0.105 z m -7.0844,-2.065 c -6.325,-3.857 -4.1497,-12.939 3.0992,-12.939 1.9182,0 2.4924,0.233 4.0714,1.659 2.0122,1.818 2.9922,4.377 2.4885,6.494 -1.1079,4.645 -5.9531,7.046 -9.6591,4.786 z m -113.7686,1.303 c 5.1193,-1.421 7.6795,-7.864 5.1284,-12.909 -0.8978,-1.777 -3.6146,-3.981 -5.6634,-4.596 -2.3671,-0.708 -4.5737,-0.253 -6.8861,1.423 -2.5315,1.833 -3.4541,3.738 -3.4515,7.134 0,6.493 4.9757,10.585 10.8726,8.948 z m -6.0235,-2.746 c -2.7286,-1.662 -4.0988,-6.346 -2.6633,-9.103 1.2292,-2.362 2.8538,-3.454 5.4493,-3.663 1.9822,-0.159 2.7077,0 4.0061,0.885 4.335,2.946 4.5216,9.366 0.3485,11.911 -1.9535,1.191 -5.1597,1.178 -7.1406,-0.03 z m 68.8583,-64.228 c 2.2745,-0.952 3.7321,-2.353 4.7603,-4.582 1.4981,-3.247 0.8743,-6.81 -1.7251,-9.847 -3.8612,-4.511 -10.3689,-3.921 -13.3768,1.211 -2.7259,4.651 -1.0935,10.382 3.6264,12.735 2.7573,1.374 4.3128,1.486 6.7152,0.483 z m -5.6856,-2.036 c -1.4589,-0.59 -3.3328,-3.061 -3.89,-5.13 -0.6289,-2.334 0.013,-4.481 1.9091,-6.376 4.0492,-4.049 11.0006,-0.512 10.9914,5.592 0,4.55 -4.7251,7.648 -9.0105,5.914 z m -134.3146,136.461 c 6.8952,-1.54 8.1049,-1.828 12.5899,-2.992 l 1.8413,-0.478 v -2.341 c 0,-1.866 -0.1175,-2.239 -0.5977,-1.844 -0.5037,0.418 -12.9605,4.262 -19.5425,6.032 -1.7434,0.468 -1.9561,0.674 -1.9561,1.889 0,0.749 0.078,1.363 0.1853,1.363 0.1044,0 3.4685,-0.734 7.4798,-1.629 z m -31.1759,-1.018 c -0.026,-1.122 -0.078,-1.161 -0.428,-0.346 -0.5403,1.258 -0.5403,1.612 0,1.612 0.2531,0 0.4462,-0.57 0.428,-1.266 z m 26.0045,-4.998 c 0.6551,-0.251 0.7282,-3.922 0.7282,-36.795 0,-32.582 -0.078,-36.594 -0.723,-37.238 -0.826,-0.826 -0.7973,-0.818 -1.7708,-0.445 -0.6563,0.252 -0.7281,3.86 -0.7281,36.08 0,19.69 0.1305,36.448 0.2871,37.24 0.2858,1.426 0.8025,1.697 2.2066,1.158 z m -25.9719,-2.226 c 0,-0.364 -0.2075,-0.791 -0.4606,-0.947 -0.2532,-0.157 -0.4607,0.142 -0.4607,0.663 0,0.522 0.2075,0.948 0.4607,0.948 0.2531,0 0.4606,-0.298 0.4606,-0.664 z m 34.1316,-0.393 c 1.0139,-0.461 1.1509,-0.726 0.8208,-1.59 -0.4345,-1.133 -1.1261,-1.271 -2.9283,-0.586 -0.6824,0.26 -1.1809,0.809 -1.1809,1.303 0,1.583 1.0948,1.874 3.2884,0.873 z m 9.3772,-2.078 2.2954,-0.328 0.5767,-42.767 c 0.3171,-23.523 0.5076,-42.837 0.4241,-42.921 -0.091,-0.09 -2.0552,1.099 -4.3793,2.631 l -4.2253,2.783 0.2727,40.143 c 0.1501,22.078 0.3549,40.405 0.4541,40.729 0.1174,0.36 0.5872,0.484 1.2345,0.322 0.578,-0.145 2.0852,-0.412 3.3471,-0.592 z m -104.6915,-12.447 c 10.9901,-6.291 28.0441,-16.229 37.8989,-22.084 9.8548,-5.855 18.0967,-10.706 18.3159,-10.779 0.2193,-0.08 0.338,-2.368 0.2662,-5.1 l -0.1317,-4.967 -11.5095,7.542 c -6.3289,4.148 -13.4759,8.789 -15.8822,10.312 -2.405,1.522 -8.8265,5.624 -14.2707,9.116 -5.4428,3.49 -15.1802,9.656 -21.6356,13.7 -14.5943,9.144 -14.7313,9.246 -14.7313,10.922 0,1.735 0.4241,2.777 1.1287,2.777 0.3132,0 9.5612,-5.148 20.5513,-11.439 z m -18.7805,1.013 c 5.0449,-2.599 63.7378,-41.22 73.1893,-48.158 1.7173,-1.261 3.7726,-3.252 4.5673,-4.424 0.7947,-1.172 2.4963,-3.133 3.7816,-4.357 1.9039,-1.813 2.1245,-2.168 1.1875,-1.914 -2.264,0.613 -4.6625,2.112 -17.0919,10.684 -6.9304,4.779 -16.8479,11.566 -22.0389,15.081 -10.4798,7.099 -40.9172,28.051 -44.263,30.469 -1.6233,1.174 -2.084,1.771 -1.9026,2.464 0.2897,1.111 0.6707,1.134 2.5707,0.155 z m 113.5232,-44.7 c 0.039,-16.317 -0.039,-18.53 -0.6563,-18.53 -1.5451,0 -1.6573,2.101 -1.1614,21.843 0.7829,31.256 1.7368,29.517 1.8177,-3.313 z m 27.8524,-5.87 c 0.8782,-1.675 0.9591,-2.547 0.9056,-9.668 -0.065,-8.459 -0.5063,-11.021 -2.2445,-12.997 l -1.1196,-1.274 -0.013,13.039 c -0.013,11.885 0.052,13.026 0.7464,12.89 0.4176,-0.08 1.1954,-0.977 1.7265,-1.99 z m -4.0988,-10.818 c 0,-6.836 -0.1409,-12.429 -0.3119,-12.429 -0.9173,0 -2.6764,5.084 -2.9465,8.516 -0.3145,3.998 0.428,12.141 1.2527,13.738 0.4111,0.797 1.7721,2.603 1.9613,2.605 0.026,0 0.039,-5.593 0.039,-12.43 z m 10.1445,-13.121 c 0.9069,-4.185 3.5285,-12.168 5.6594,-17.232 0.7934,-1.883 1.3311,-3.533 1.198,-3.667 -0.9657,-0.965 -3.6891,3.552 -5.2498,8.704 -0.4984,1.648 -1.5424,3.998 -2.3201,5.223 -1.4054,2.217 -1.4106,2.25 -1.0962,6.812 0.1736,2.521 0.4711,4.417 0.663,4.213 0.1905,-0.203 0.7059,-2.026 1.1457,-4.053 z m -36.4414,-8.384 c 7.031,-4.718 10.4147,-7.324 10.4147,-8.022 0,-1.014 -1.9627,0.08 -9.6447,5.384 -7.0153,4.841 -9.0001,6.65 -7.2985,6.65 0.3028,0 3.2401,-1.805 6.5285,-4.012 z m 34.6588,-3.622 c 1.1823,-0.236 1.5673,-0.786 3.2284,-4.604 1.0374,-2.384 1.6951,-4.335 1.4615,-4.335 -0.2322,0 -1.4001,0.496 -2.5941,1.1 -2.6595,1.348 -5.6425,4.07 -6.9918,6.381 l -1.01,1.725 h 2.2823 c 1.2553,0 2.8852,-0.117 3.6237,-0.267 z m -7.1314,-15.209 c 10.8518,-7.368 15.1111,-10.661 15.1111,-11.683 0,-1.262 -0.9996,-0.625 -17.3777,11.064 -4.5412,3.242 -6.2284,5.048 -4.716,5.048 0.2544,0 3.3967,-1.993 6.9826,-4.429 z m 83.2425,-43.033 c 0,-0.278 -0.8626,-2.247 -1.9169,-4.375 -1.639,-3.305 -1.9457,-4.389 -2.1049,-7.436 -0.1879,-3.572 0.2101,-5.532 1.9248,-9.485 l 0.7712,-1.777 -1.4211,1.011 c -0.7816,0.557 -1.9769,2.081 -2.6555,3.389 -1.0622,2.043 -1.2332,2.924 -1.2201,6.29 0.013,4.671 1.2619,8.365 3.7399,11.108 1.5594,1.726 2.8826,2.311 2.8826,1.275 z m 14.9623,-1.498 c 2.8068,-1.31 5.3462,-4.032 6.445,-6.911 1.5568,-4.074 0.3014,-10.399 -2.786,-14.054 -1.5242,-1.803 -5.3176,-3.72 -7.3755,-3.726 -4.6507,-0.01 -9.6903,3.886 -11.0462,8.551 -1.4367,4.943 -0.026,10.915 3.3263,14.089 1.8034,1.708 5.0892,3.114 7.2932,3.12 1.0126,0 2.8774,-0.478 4.1432,-1.069 z m -7.5269,-3.381 c -2.4754,-1.219 -3.9291,-3.864 -4.1353,-7.527 -0.2244,-3.968 0.4437,-5.954 2.683,-7.978 5.8356,-5.27 13.9118,0.651 12.6225,9.255 -0.826,5.503 -6.3798,8.611 -11.1702,6.25 z m 31.0038,3.381 c 7.853,-3.664 9.4176,-14.456 3.0509,-21.032 -7.4459,-7.693 -18.9319,-1.573 -18.9319,10.087 0,4.362 3.0418,9.041 7.1092,10.936 2.9896,1.391 5.803,1.395 8.7718,0 z m -7.8661,-3.469 c -3.1827,-1.941 -4.5725,-5.082 -4.2149,-9.526 0.2818,-3.512 1.4602,-5.601 3.95,-7 3.1879,-1.792 6.5207,-1.1 9.1553,1.899 3.8522,4.387 2.8278,12.511 -1.8582,14.734 -2.144,1.017 -5.2654,0.969 -7.0322,-0.105 z m -6.6512,3.202 c 0.8247,-1.54 0.5441,-2.288 -1.0192,-2.72 -1.1966,-0.33 -1.6716,-0.246 -2.3736,0.418 -0.8313,0.787 -0.8378,0.894 -0.1044,2.011 0.933,1.426 2.8069,1.581 3.4972,0.291 z" id="path25"/></g></svg>