<?xml version='1.0' encoding='utf-8'?>
<svg xmlns="http://www.w3.org/2000/svg" width="502.01099mm" height="355.03687mm" viewBox="0 0 502.01099 355.03687" version="1.1" id="svg5" xml:space="preserve"><defs id="defs2" /><g id="layer1"><path style="fill:#000000;stroke-width:1" d="m 431.62485000000004 353.84569999999985 -4.02666,-1.1208 v -5.9612 -5.9629 l 3.74803,-0.5808 c 2.06213,-0.3196 8.74751,-1.4923 14.85518,-2.6084 17.7689,-3.2475 20.2529,-3.1184 54.00564,2.7894 l 1.80396,0.3164 v 3.5843 c 0,1.9708 -0.14167,3.5843 -0.32112,3.5843 -0.17788,0 -2.48872,-0.7666 -5.138,-1.7048 -15.9917,-5.6574 -24.93125,-5.1191 -37.30085,2.2495 -2.74373,1.6355 -5.7346,2.6933 -12.4798,4.4123 -4.87983,1.2436 -9.37873,2.2306 -9.99579,2.1928 -0.61864,-0.032 -2.93735,-0.573 -5.15059,-1.1901 z m -51.64601,-10.3043 -3.46941,-0.8485 v -5.6102 -5.6103 l 4.58075,-0.6627 c 2.52021,-0.3636 8.08007,-1.2939 12.35544,-2.0684 4.27694,-0.7745 10.64907,-1.5552 14.16098,-1.7378 5.85265,-0.3023 7.71014,-0.1102 22.21271,2.2557 8.705,1.4215 16.45135,2.7799 17.21481,3.0192 1.14125,0.3589 0.43131,0.6674 -3.99203,1.7363 -5.31587,1.2845 -5.43708,1.2892 -10.27284,0.362 -2.69178,-0.5147 -6.42722,-0.935 -8.30202,-0.9334 -4.36982,0 -11.82968,2.1597 -17.32973,5.0057 -3.1105,1.6104 -6.53111,2.7233 -12.75369,4.1526 -9.35985,2.1487 -9.4354,2.1535 -14.40497,0.9398 z m -44.981077,-8.535 -3.46941,-1.1003 v -4.8531 -4.8531 l 6.52481,-0.9571 c 3.58747,-0.5273 8.77427,-1.3191 11.52272,-1.7614 10.1784,-1.6371 12.292467,-1.8953 15.620197,-1.9063 2.71855,0 29.95434,3.9212 32.13767,4.6374 1.86221,0.6108 -6.88687,1.6434 -14.71665,1.7363 -9.98478,0.1259 -11.80763,0.499 -21.50434,4.491 -3.667747,1.5096 -21.019507,5.9613 -22.319747,5.7252 -0.17788,-0.031 -1.88582,-0.5541 -3.79525,-1.1586 z m -40.39877,-7.4048 c -0.305383,-0.1102 -1.618217,-0.4754 -2.915309,-0.8091 l -2.361213,-0.6076 v -4.395 -4.3966 l 1.805541,-0.2629 c 28.871327,-4.2108 30.730388,-4.28 47.329711,-1.7488 7.3229,1.116 13.39752,2.1109 13.49669,2.2116 0.0944,0.094 -1.14598,0.5069 -2.76577,0.9068 -1.83073,0.4517 -5.62126,0.6768 -10.02413,0.5966 -7.84867,-0.1417 -12.602578,0.7067 -20.745612,3.7149 -7.089933,2.6194 -21.720003,5.5615 -23.819908,4.7901 z m 204.081127,-4.7869 c -3.21912,-0.5337 -40.26181,-5.3993 -73.02599,-9.5928 -32.58158,-4.1699 -46.65755,-5.8133 -114.395998,-13.3598 -28.122036,-3.1325 -62.405262,-6.7908 -85.797003,-9.1552 -12.06422,-1.2199 -25.433403,-2.5957 -29.710345,-3.057 -4.275368,-0.4628 -16.394682,-1.7205 -26.931985,-2.7988 -10.537299,-1.0767 -28.655669,-2.9547 -40.261819,-4.173 -11.60614,-1.2184 -27.22477,-2.8445 -34.70667,-3.6143 -7.48347,-0.7697 -16.72997,-1.7677 -20.54727,-2.2179 -3.81886,-0.4502 -13.0638,-1.4514 -20.54727,-2.2243 -7.48347,-0.7745 -15.97911,-1.7678 -18.88025,-2.2069 -5.65432,-0.8564 -14.96379,-2.0574 -26.01741,-3.3577 -7.11827,-0.8374 -7.85811,-1.0263 -7.85811,-2.018 0,-0.4093 1.95193,-0.4786 6.24776,-0.2251 7.86127,0.4643 21.19424,1.3396 26.07408,1.7126 l 3.72285,0.2849 -0.77291,-2.5674 c -0.42502,-1.412 -1.25931,-3.0979 -1.85591,-3.7496 -0.59502,-0.6501 -1.60562,-2.2258 -2.2463,-3.5025 -0.6391,-1.2766 -1.67331,-2.4824 -2.29825,-2.6791 -1.57886,-0.5022 -2.66029,-2.3408 -4.66575,-7.94 -2.11092,-5.8936 -1.9236,-5.8401 -12.40581,-3.5544 l -7.35754,1.6025 v -9.9077 -9.9092 h 9.85728 c 5.42134,0 34.34776,-0.3636 64.27849,-0.8044 29.9323,-0.4408 75.91297,-1.0972 102.179097,-1.4577 26.267697,-0.362 48.34818,-0.8783 49.069137,-1.1491 1.013747,-0.3793 1.237275,-0.7729 0.98069,-1.73 -0.182601,-0.6831 -0.336867,-1.678 -0.340015,-2.2116 0,-0.891 -0.868926,-0.9728 -10.25081,-0.9728 -5.633852,0 -22.689674,0.2439 -37.900602,0.5415 -43.334537,0.8468 -87.753667,1.6229 -127.615647,2.2274 -20.15846,0.3054 -39.71244,0.6863 -43.45418,0.8469 l -6.80344,0.2896 v -4.088 -4.0881 l 8.46888,-0.3778 c 4.65789,-0.2078 13.59114,-0.743 19.85308,-1.19 18.0916,-1.2924 38.37285,-2.6776 61.08613,-4.1747 4.73344,-0.3116 13.97995,-0.9429 20.5457,-1.4041 6.56731,-0.4612 16.93776,-1.1869 23.047,-1.6135 6.10767,-0.4282 18.47727,-1.2939 27.48766,-1.9267 31.427733,-2.2054 40.31376,-2.7926 47.896399,-3.1625 l 7.636161,-0.3746 v 4.9081 c 0,4.8846 1.081435,8.6169 2.943644,10.1627 0.517893,0.4297 0.665862,-14.087 0.665862,-65.0419 v -65.5961 l 5.599222,-1.7457 c 3.080594,-0.9602 6.243044,-1.9063 7.026966,-2.1031 l 1.426173,-0.3573 0.07871,18.8031 0.07871,18.8031 -1.75989,0.3526 c -0.968097,0.1937 -3.480427,0.3511 -5.583479,0.3511 h -3.822023 l 0.141673,28.1834 0.141673,28.1819 5.136424,-0.1575 5.136423,-0.1574 v 6.1234 6.1235 h -3.74803 c -5.821176,0 -6.121837,0.1778 -6.550003,3.6126 -0.203065,1.6245 -0.190472,4.2581 0.03148,5.8527 l 0.398258,2.8995 4.890858,-0.3164 4.892431,-0.3164 0.347886,4.2644 c 0.192045,2.3454 0.456501,4.7869 0.587154,5.4245 0.365201,1.7803 2.422604,4.1022 5.191519,5.8573 3.28051,2.0811 4.771222,2.0606 1.890543,-0.031 -3.160875,-2.2904 -4.57288,-4.5336 -5.177351,-8.2249 -0.299086,-1.8292 -0.527337,-22.5669 -0.528911,-48.2412 0,-38.2988 0.125931,-45.4391 0.82485,-47.7578 0.634379,-2.0952 0.827998,-5.8968 0.832721,-16.4309 v -13.7045 l 3.192359,-0.6234 c 2.561128,-0.499 11.6407754,-3.1168 14.98425243,-4.3194 0.532059,-0.1905 0.547801,0.1417 0.06297,1.5253 -1.10819503,3.1782 -0.125931,8.7633 4.18564197,23.853 2.307691,8.0769 4.139992,14.7292 4.072304,14.7828 -0.06297,0.047 -4.997899,1.1633 -10.95445,2.4651 -5.954977,1.3002 -11.2661304,2.591 -11.7997644,2.8681 -0.905131,0.4675 -0.972819,2.3328 -0.972819,27.1382 0,14.6505 0.187322,26.6329 0.417147,26.6281 0.229825,0 3.310419,-0.2487 6.8475154,-0.543 3.535522,-0.2928 12.782028,-0.9146 20.5456936,-1.3821 7.765239,-0.4691 18.24115,-1.1287 23.279977,-1.4687 19.171468,-1.2924 50.893561,0.9933 70.8033,5.1018 14.99684,3.0947 26.29603,7.1655 33.5843,12.0988 1.36793,0.9256 2.58474,1.5852 2.70595,1.464 0.42817,-0.4282 -5.97544,-7.0506 -9.7219,-10.0556 -12.74424,-10.2194 -29.95905,-17.2558 -51.002169,-20.8448 -5.98961,-1.0232 -9.4417,-1.2373 -20.268643,-1.2656 -7.178084,-0.016 -13.916984,0.094 -14.976381,0.244 -1.895266,0.2723 -1.977121,0.1983 -5.213556,-4.7209 -1.808689,-2.7484 -5.177351,-6.8412 -7.485042,-9.0954 -2.307692,-2.2541 -3.710252,-3.9558 -3.115226,-3.7826 9.177244,2.6791 19.372958,3.6331 44.949598,4.2061 l 19.9916,0.447 5.553569,1.7993 c 15.55409,5.0372 28.71548,14.2239 38.40905,26.8107 3.28208,4.2612 8.85454,13.4621 11.92727,19.6941 1.25301,2.5438 2.44306,4.6249 2.64298,4.6249 0.19992,0 1.21838,-2.3125 2.26519,-5.1365 4.69881,-12.6876 10.06191,-21.1029 18.59848,-29.183 7.95414,-7.5291 15.70363,-12.1004 28.79892,-16.9818 3.00503,-1.1192 6.93252,-2.654 8.73018,-3.4112 1.79767,-0.7556 3.40172,-1.3758 3.56386,-1.3758 0.16056,0 0.29437,4.7303 0.29437,10.5121 v 10.5106 l -3.19394,0.3243 c -11.88791,1.2042 -19.98215,3.2852 -27.62775,7.1056 -9.86515,4.9287 -16.93777,11.6534 -21.30286,20.2545 -1.73313,3.4127 -1.45923,3.7984 0.86735,1.2231 6.74362,-7.4646 22.0427,-14.3577 38.65934,-17.4179 9.79746,-1.8055 9.80061,-1.8055 9.57236,0.1102 -0.0945,0.8406 -0.20937,2.9641 -0.244,4.7209 l -0.063,3.1923 h -2.45881 c -7.43152,0 -19.27064,2.7989 -26.67068,6.3045 -5.87784,2.7831 -9.15048,4.8908 -13.71077,8.8246 l -3.13254,2.7044 -15.41714,-0.3967 -15.41714,-0.3967 -3.66146,-2.7815 c -7.88487,-5.988 -20.4418,-10.8317 -34.483129,-13.3031 -6.15175,-1.0814 -8.77427,-1.2152 -23.04543,-1.1664 -8.857692,0.031 -22.601521,0.4644 -30.543064,0.9681 -7.941543,0.5021 -22.810883,1.412 -33.041228,2.0212 -10.23191857,0.6108 -20.5409706,1.2656 -22.90848,1.4592 l -4.303702,0.3479 v 5.7834 5.7818 l 4.026653,-0.2959 c 2.2148174,-0.1621 10.0241334,-0.6848 17.3533354,-1.1602 7.3307766,-0.4753 18.5764426,-1.2199 24.9894946,-1.6575 29.164118,-1.9834 32.564263,-2.0858 46.755141,-1.4136 15.77762,0.7493 22.90691,1.3726 29.601729,2.591 5.53153,1.0075 11.10714,2.4888 11.10714,2.9531 0,0.1795 -16.68117,0.3259 -37.067879,0.3259 -20.386699,0 -38.00449,0.1983 -39.150465,0.4407 l -2.082589,0.4424 v 8.2154 8.2155 l -13.417981,0.3667 c -7.379575,0.2015 -17.0621186,0.3684 -21.5185126,0.3684 -4.45481997,0 -10.911948,0.1653 -14.348299,0.3636 l -6.2477674,0.3589 v 2.6918 2.6918 l 5.692095,-0.032 c 3.1309674,-0.016 14.5576604,-0.2314 25.392475,-0.4786 l 19.70038,-0.4486 4.506766,3.7654 c 10.598694,8.8514 17.356483,17.9562 25.107556,33.8298 5.222992,10.6948 6.178502,12.2799 9.240202,15.3416 3.47413,3.4757 7.93997,6.1266 13.59744,8.0722 1.65127,0.5683 3.2443,1.0342 3.53552,1.0342 0.29279,0 -0.98069,-1.6166 -2.82873,-3.5937 -3.87869,-4.1448 -7.13716,-9.4638 -9.59754,-15.6612 -5.98332,-15.0755 -14.612754,-25.0131 -32.326567,-37.2379 -1.429321,-0.9869 -2.598908,-2.0101 -2.598908,-2.2762 0,-0.6375 8.846675,-1.1995 18.960533,-1.2026 6.461842,0 8.191832,-0.1637 8.429522,-0.7824 0.16371,-0.4281 0.15741,-0.9271 -0.0315,-1.1097 -0.1826,-0.1826 -6.413049,-0.3322 -13.844571,-0.3322 H 43.26397 v -2.7673 -2.7674 l 13.743829,-0.1416 c 13.323532,-0.1417 13.743822,-0.1826 13.743822,-1.2593 0,-1.0799 -0.36992,-1.1098 -13.605298,-1.1098 H 43.541076 l -0.16371,-4.0267 -0.162137,-4.0266 h 50.141124 c 27.578947,0 67.925767,0.1653 89.659937,0.3683 l 39.51567,0.3668 0.22511,8.1005 c 0.19834,7.1923 0.11019,8.2013 -0.75087,8.9963 -0.60762,0.5588 -0.85948,1.3427 -0.66586,2.0794 0.23927,0.9146 -0.32742,1.7552 -2.49974,3.7087 -3.35921,3.0208 -5.74719,7.5228 -7.14345,13.4699 -1.41515,6.0305 -1.42932,31.804 -0.0157,39.2292 0.51632,2.7295 0.83744,5.0656 0.70994,5.1915 -0.12594,0.1259 -1.51748,-0.047 -3.09162,-0.3857 -4.47056,-0.9586 -19.53982,-2.2699 -26.07722,-2.2699 h -5.91563 l -0.89568,1.878 c -1.28136,2.6855 -4.0912,5.7204 -7.29458,7.877 -1.76146,1.1869 -2.47927,1.9551 -1.97239,2.114 0.43603,0.1417 11.66438,1.0264 24.95014,1.9756 13.28575,0.9492 29.841,2.1455 36.79083,2.6587 l 12.63248,0.9319 v 11.5511 c 0,6.3532 -0.063,11.5227 -0.14167,11.4865 -0.0787,-0.031 -1.51275,-0.2928 -3.19236,-0.5714 z m -86.09294,-29.2114 c 0,-0.2298 -1.13181,-1.0924 -2.49187,-1.9188 -1.36163,-0.8265 -3.29153,-2.6666 -4.28638,-4.0912 -0.99643,-1.4246 -2.0763,-2.9579 -2.39899,-3.4096 -0.50845,-0.7147 -1.96453,-0.7383 -11.10557,-0.1905 -15.35103,0.9209 -27.90952,2.0905 -36.361087,3.386 -4.09119,0.6265 -7.52754,1.2278 -7.63459,1.3364 -0.42816,0.4266 5.01522,0.9177 28.200737,2.5391 22.09937,1.5474 34.60435,2.4887 35.67792,2.6871 0.22982,0.047 0.40928,-0.1102 0.39983,-0.3385 z m -85.134277,-8.6074 c -3.291534,-3.3198 -6.397315,-8.9742 -7.905343,-14.3939 -1.164864,-4.1888 -1.443487,-4.3494 -7.519673,-4.3494 h -3.255324 l -2.093608,4.3037 c -1.917305,3.9385 -2.255745,4.3273 -3.992023,4.5824 -1.593031,0.2329 -2.143981,0.7241 -3.420609,3.0538 -0.835869,1.5269 -2.594185,3.7039 -3.905445,4.8357 -1.309686,1.1319 -2.268338,2.1582 -2.128239,2.2778 0.141672,0.126 7.502358,0.6502 16.360051,1.1759 8.857694,0.5258 16.478112,1.0342 16.937762,1.1287 0.458071,0.094 1.503301,0.1999 2.323431,0.2361 1.42303,0.063 1.36006,-0.063 -1.40098,-2.8508 z m -48.378092,-3.0381 c -3.012907,-3.057 -5.341062,-7.6346 -6.855386,-13.4841 l -1.078287,-4.1636 -2.9877196,-0.362 c -1.64183,-0.1984 -4.517786,-0.3857 -6.38944,-0.4172 -3.275788,-0.047 -3.430054,0 -4.091194,1.6041 -0.377793,0.913 -1.412004,2.8035 -2.29982,4.2014 -1.542659,2.4336 -1.711092,2.5343 -3.946373,2.3675 -2.2888014,-0.1716 -2.3643604,-0.126 -3.8314604,2.602 -0.823276,1.5269 -2.554831,3.8378 -3.848776,5.1365 l -2.350193,2.3596 h 1.522195 c 2.472976,0 36.055709,2.2195 36.963988,2.4431 0.458076,0.1101 1.04523,0.2345 1.304964,0.2691 0.259733,0.031 -0.691048,-1.1145 -2.112498,-2.5564 z m -55.507374,-4.2927 c -1.038934,-1.36 -2.535942,-3.8456 -3.32931,-5.522 -1.38367,-2.9248 -1.53951,-3.057 -3.801551,-3.2207 -2.276209,-0.1637 -2.414733,-0.285 -4.02508,-3.5088 -3.244305,-6.4965 -3.998319,-7.4913 -5.673206,-7.4787 -3.201803,0.031 -9.876163,4.1966 -14.582845,9.1127 -1.49386,1.5599 -2.2463,1.9535 -3.332457,1.7394 -0.771329,-0.1574 -6.773531,-0.7855 -13.340848,-1.4073 -6.567318,-0.6234 -12.985093,-1.2499 -14.261722,-1.3915 -2.265188,-0.2519 -2.339178,-0.2078 -3.000308,1.8087 -0.76346,2.3297 -1.86694,4.2627 -3.47099,6.0777 -1.40256,1.5883 -1.20421,1.6466 6.850667,2.0291 8.171368,0.3872 48.601614,3.0255 55.530985,3.6237 2.902717,0.2518 5.961274,0.4911 6.798717,0.532 l 1.523769,0.079 z m -80.607057,-5.7235 c -0.75402,-1.4514 -1.65442,-4.1747 -2.00388,-6.0495 -0.61864,-3.3261 -0.68318,-3.4174 -2.62882,-3.7385 -1.09718,-0.1826 -3.01763,-0.3338 -4.2675,-0.3369 -2.17231,0 -2.30297,0.094 -2.93892,2.2148 -0.60289,2.0149 -0.83744,2.2211 -2.51863,2.2211 -1.55367,0 -1.97082,0.2818 -2.57529,1.741 -0.39511,0.9555 -1.33173,2.4667 -2.07944,3.3545 -0.74772,0.8894 -1.26561,1.7001 -1.15228,1.804 0.16844,0.1574 11.48967,0.9209 19.75706,1.3412 l 1.77878,0.094 z m -29.12949,0 c 0,-0.2283 -0.76189,-1.5269 -1.68276,-2.8854 -0.92087,-1.3585 -2.18176,-4.1432 -2.80354,-6.1896 -1.28923,-4.247 -0.62336,-3.9526 -10.65852,-4.7114 l -4.88298,-0.3699 -2.71382,2.2888 c -1.49229,1.2593 -3.16875,2.2841 -3.72599,2.2778 -0.55568,0 -3.12153,-0.6312 -5.70155,-1.3884 -2.58159,-0.7572 -4.894,-1.3774 -5.14114,-1.3774 -0.24714,0 -0.84374,0.9823 -1.32385,2.1834 -0.58716,1.4686 -1.37266,2.3565 -2.40057,2.7154 -1.34117,0.4659 -3.40014,3.6173 -2.76104,4.225 0.22352,0.2125 16.15541,1.5694 32.69964,2.783 5.34578,0.392 10.03042,0.7478 10.41294,0.7887 0.38094,0.047 0.68948,-0.1102 0.68318,-0.34 z m -52.74476,-4.1951 c 0,-0.3983 -0.71938,-1.8575 -1.59932,-3.2443 -0.87838,-1.3868 -1.93935,-3.4962 -2.35649,-4.6894 -0.88782,-2.5391 -1.3758,-2.983 -3.29154,-2.994 -1.75517,0 -2.74845,0.9287 -2.74845,2.6005 0,1.0846 -0.28807,1.2782 -1.90629,1.2782 -1.39311,0 -1.99758,0.2865 -2.24629,1.0672 -0.18575,0.5888 -0.94449,1.963 -1.68591,3.0555 -0.74142,1.0924 -1.29237,2.0054 -1.22626,2.0306 0.063,0.031 3.74646,0.3636 8.17452,0.7509 4.42964,0.3872 8.24063,0.7414 8.46889,0.787 0.22982,0.047 0.41714,-0.244 0.41714,-0.6422 z m 115.507353,-8.9191 c 0,-0.1102 -1.106621,-2.5485 -2.457234,-5.4135 -4.635847,-9.8305 -5.794415,-15.2691 -4.574455,-21.4555 l 0.464371,-2.3597 h -15.862625 -15.86262 l -0.98384,1.5033 c -0.7241,1.1019 -0.98541,2.6163 -0.98541,5.6921 0,4.787 0.89096,7.8739 4.45167,15.4345 l 2.41946,5.1364 2.95151,0.047 c 1.62294,0.032 7.94784,0.37 14.05708,0.7572 12.528595,0.7949 16.382093,0.9476 16.382093,0.6533 z m -96.060403,-2.7122 c -1.5222,-2.2715 -5.68265,-10.8585 -7.14818,-14.7482 -0.79494,-2.1093 -0.9256,-3.0113 -0.45808,-3.1687 0.35891,-0.126 6.77668,-1.793 14.25858,-3.715 l 13.6053,-3.4962 -10.54989,-0.3447 c -5.80386,-0.1889 -13.85087,-0.3762 -17.8854,-0.4156 l -7.33235,-0.079 -0.43446,2.0826 c -1.32543,6.3391 0.27862,11.7604 4.8027,16.242 1.99287,1.974 11.28187,9.1473 12.1571,9.3882 0.11019,0.031 -0.35104,-0.7588 -1.01532,-1.752 z m 350.78166,-5.5284 c 2.24,-3.3341 5.76451,-5.8055 10.20358,-7.1545 l 3.85035,-1.1696 v -9.0639 -9.0655 l -1.80554,-0.3809 c -3.13411,-0.6627 -8.08321,-3.6426 -10.70416,-6.4446 l -2.52807,-2.7028 h -8.02969 -8.03127 v 1.3239 c 0,1.7473 -3.70238,5.0735 -7.53227,6.7688 l -2.95151,1.305 -0.17316,6.6791 -0.17158,6.679 3.41116,1.6781 c 1.87638,0.9224 4.34149,2.7059 5.47802,3.9652 2.02592,2.2416 2.05897,2.3534 1.69692,5.5552 -0.20306,1.7961 -0.21723,3.5135 -0.0315,3.8141 0.19676,0.3196 3.57172,0.5494 8.04386,0.5494 h 7.70542 z m -11.49281,-16.9614 v -14.2995 l 4.40288,0.1794 c 2.4226,0.095 4.88141,-0.079 5.46699,-0.3888 0.88782,-0.4754 1.46238,-0.1574 3.51034,1.9488 2.50131,2.5706 5.14114,4.2014 7.86283,4.8562 l 1.52692,0.3668 v 5.1254 c 0,6.7436 -0.44391,9.2875 -1.59303,9.3032 -1.79295,0.031 -5.65904,2.2022 -8.30517,4.6768 l -2.70595,2.5312 h -5.07818 -5.07976 z m -8.52082,2.1235 c -1.72684,-1.8103 -3.13884,-3.7543 -3.13884,-4.321 0,-0.5667 1.49858,-2.5139 3.33246,-4.3273 l 3.33088,-3.2978 v 7.6188 c 0,4.1888 -0.0944,7.6173 -0.19362,7.6173 -0.11019,0 -1.60405,-1.4797 -3.33088,-3.29 z m -168.625171,13.8414 v -2.2211 h -2.498162 -2.499737 v -2.9688 c 0,-1.6324 0.162137,-5.2435 0.358905,-8.025 l 0.358904,-5.0545 2.279357,-0.1669 c 2.260467,-0.1653 2.277782,-0.1842 2.277782,-2.388 v -2.2211 l -3.982578,-0.1621 -3.982577,-0.1622 -0.302235,2.939 c -0.165285,1.615 -0.451779,7.3732 -0.637527,12.7946 l -0.336866,9.8573 h 4.48158 4.483154 z m 13.3282564,70.5971 -3.055409,-0.9508 -0.162136,-4.003 c -0.09445,-2.2006 -0.09445,-4.0203 0,-4.0408 0.09445,-0.016 2.78623,-0.3699 5.99433,-0.7729 3.206526,-0.403 8.953716,-1.157 12.7725826,-1.6765 9.128446,-1.2404 17.633532,-0.9256 29.987394,1.1145 l 9.717175,1.6056 -3.886555,0.7525 c -2.199076,0.425 -5.40875,0.6249 -7.38902,0.4565 -4.406022,-0.3715 -10.902503,0.743 -18.845621,3.2333 -4.96799,1.5584 -13.9138356,3.7023 -20.96756257,5.0262 -0.610767,0.1102 -2.48557003,-0.2204 -4.16517803,-0.7446 z m -34.9852934,-6.4366 -2.499737,-0.6659 -0.163711,-3.6662 -0.162136,-3.6646 2.384824,-0.2707 c 1.31126,-0.1417 5.758209,-0.7273 9.880886,-1.2861 10.531006,-1.4309 23.4783194,-1.327 33.5575464,0.2692 4.25333,0.6737 7.8266306,1.316 7.9383946,1.4293 0.483262,0.4817 -4.4800056,1.0562 -10.3972036,1.2026 -5.466993,0.1417 -7.587361,0.488 -14.7166484,2.4478 -7.958858,2.1881 -21.302855,5.0971 -22.673933,4.9444 -0.35733,-0.031 -1.774057,-0.3731 -3.148282,-0.7398 z m -29.21449,-5.1491 -2.836603,-0.8201 0.06297,-3.2726 c 0.04722,-2.5108 0.253436,-3.2711 0.892538,-3.2727 0.458075,0 5.205685,-0.4816 10.551469,-1.0672 5.34421,-0.5872 11.223628,-1.2168 13.063799,-1.401 3.138839,-0.3148 19.487872,1.3884 22.198543,2.3124 1.380522,0.4707 -2.446215,1.1633 -6.77353,1.2247 -1.588309,0.016 -6.710566,1.031 -11.384191,2.2416 -4.673627,1.2105 -11.371598,2.7138 -14.883508,3.3387 -3.511909,0.6265 -6.760936,1.2278 -7.219011,1.338 -0.458076,0.1102 -2.10935,-0.17 -3.669324,-0.6218 z m -25.206727,-4.5886 c -0.459649,-0.2707 -1.52062,-0.6344 -2.361212,-0.8122 -1.216811,-0.255 -1.525343,-0.6281 -1.519046,-1.8371 0.01574,-3.844 -0.199916,-3.7338 9.611707,-4.8058 14.275889,-1.56 18.815712,-1.6749 25.787584,-0.647 7.352814,1.083 10.00052,1.889 6.520094,1.9819 -2.387973,0.063 -6.461851,0.8059 -24.018249,4.3839 -11.845414,2.4132 -12.690728,2.5171 -14.020878,1.7363 z m -25.962315,-4.5807 c -1.67016,-0.5352 -1.80396,-0.7588 -1.80396,-2.9877 0,-2.7611 -0.39511,-2.5738 7.49606,-3.5639 11.11029,-1.3931 17.526487,-1.571 25.268114,-0.7005 4.122677,0.4628 7.823483,1.0216 8.223315,1.2404 0.399832,0.2204 -2.224262,0.8343 -5.83062,1.3664 -3.606358,0.532 -8.682964,1.445 -11.278723,2.0291 -5.476436,1.2325 -17.981416,3.3356 -19.341476,3.2521 -0.51002,-0.031 -1.73942,-0.3179 -2.73271,-0.6359 z m -20.68579,-3.8299 c -2.22269,-0.6249 -3.33089,-1.8134 -3.33089,-3.5765 0,-1.5363 0.25974,-1.5977 11.66125,-2.7626 9.59281,-0.9807 16.76775,-0.8626 23.32405,0.3825 l 3.60951,0.6848 -6.3863,0.9823 c -3.51348,0.5399 -7.88644,1.3537 -9.71875,1.8086 -1.8323,0.4565 -5.83062,1.22 -8.88445,1.7001 -3.05541,0.4786 -6.17851,0.9728 -6.94197,1.0988 -0.76346,0.1259 -2.26361,-0.016 -3.33245,-0.318 z m -21.51852,-4.0802 c -1.36635,-0.5934 -1.80396,-1.1318 -1.80396,-2.2164 0,-0.7886 0.31168,-1.5442 0.69262,-1.678 0.38252,-0.1417 3.85979,-0.6265 7.72746,-1.094 8.4248,-1.0154 18.18133,-1.0437 23.5098,-0.063 4.51936,0.8296 4.2187,0.9681 -4.92391,2.2652 -3.31829,0.4707 -6.23203,0.9791 -6.47602,1.1302 -0.51474,0.318 -14.67415,2.4998 -16.01532,2.4667 -0.499,0 -1.71738,-0.3746 -2.71067,-0.806 z m -17.77048,-2.8586 c -2.42575,-0.8721 -3.08689,-2.2369 -1.65757,-3.4238 0.38566,-0.3211 4.93179,-1.0122 10.10284,-1.5363 7.6582,-0.7761 10.42396,-0.8422 14.92286,-0.3527 3.03809,0.3306 5.78812,0.8658 6.11239,1.1901 0.41715,0.4171 0.0787,0.5903 -1.14912,0.5903 -0.95708,0 -5.06874,0.6013 -9.13632,1.3364 -4.06601,0.7352 -9.01825,1.6104 -11.00325,1.9473 -1.98656,0.3353 -4.11008,0.7193 -4.72085,0.8531 -0.61076,0.126 -2.17231,-0.1416 -3.47098,-0.6044 z m -14.48525,-2.9736 c -2.77993,-0.425 -4.37926,-2.1235 -2.87438,-3.0538 1.52849,-0.9461 14.10588,-2.0448 20.55356,-1.7961 9.73607,0.3762 10.57194,0.9571 3.04439,2.1156 -3.35449,0.5164 -8.22331,1.3349 -10.81907,1.8197 -6.87113,1.283 -7.26309,1.3192 -9.9045,0.9146 z m -15.51789,-3.09 c -3.02707,-2.1204 -0.67688,-3.2742 7.92896,-3.896 6.63185,-0.4786 13.36446,-0.3636 15.59659,0.2676 l 1.61822,0.4565 -2.22112,0.3904 c -1.22153,0.2141 -4.47056,0.861 -7.21901,1.4372 -4.88771,1.0247 -12.24997,2.2085 -13.72652,2.2085 -0.4077,0 -1.29709,-0.3888 -1.97712,-0.8642 z m -12.21376,-2.218 c -1.73313,-1.2152 -1.55211,-1.8354 0.84531,-2.8759 1.58988,-0.6895 4.3163,-0.9445 11.52272,-1.0736 5.19309,-0.095 9.16465,-0.032 8.82621,0.1259 -0.33686,0.159 -2.8366,0.913 -5.552,1.6781 -10.49637,2.9531 -13.84142,3.4127 -15.64224,2.1518 z m -11.92727,-1.9519 c -0.53364,-0.3148 -0.97125,-1.1507 -0.97125,-1.8575 0,-1.1334 0.34002,-1.3239 2.91531,-1.6324 3.24746,-0.3904 18.54969,-0.3746 16.79924,0.016 -0.61077,0.1416 -2.98615,0.8374 -5.27652,1.5568 -2.29038,0.7209 -5.41347,1.4639 -6.94197,1.6528 -1.52691,0.1873 -3.40014,0.4534 -4.1636,0.5888 -0.76346,0.1416 -1.826,0 -2.36121,-0.3259 z m -22.29614,-84.9942 c -0.21094,-2.7862 -0.28492,-5.1632 -0.16686,-5.2828 0.28649,-0.2849 24.05131,-1.9567 62.03062,-4.3635 26.76828,-1.6954 69.24334,-4.5336 95.792805,-6.4021 18.071144,-1.2703 56.876877,-3.8661 57.892198,-3.8724 0.51317,0 0.694197,1.571 0.694197,6.0337 v 6.0368 l -6.80344,0.3778 c -3.74016,0.2063 -10.050893,0.614 -14.020877,0.9036 -3.971558,0.2881 -13.591136,0.9067 -21.379988,1.3726 -7.788852,0.466 -20.158455,1.2184 -27.489235,1.6718 -7.3292,0.4518 -19.94909,1.1979 -28.04333,1.656 -25.94342,1.4702 -73.80205,4.3021 -103.19442,6.1045 -7.42994,0.4565 -13.82883,0.828 -14.21922,0.828 -0.49742,0 -0.82485,-1.5206 -1.09245,-5.064 z m 449.55747,4.5272 c -10.53101,-0.2755 -11.23465,-0.3573 -10.27442,-1.2042 3.37653,-2.972 11.61559,-5.4953 21.41777,-6.5579 8.95214,-0.9712 8.21386,-1.3175 8.21386,3.8567 v 4.4422 l -4.02665,-0.1259 c -2.21324,-0.063 -9.1127,-0.2535 -15.33056,-0.4156 z m -449.65349,-17.4163 c -0.15742,-0.3951 -0.20464,-10.1469 -0.11019,-21.668 0.12593,-16.2105 0.31797,-21.0479 0.8642,-21.3847 0.38881,-0.2409 2.6178,-0.8879 4.9554,-1.4388 4.10064,-0.9665 4.27379,-0.9665 4.9853,0 0.58401,0.7965 0.7367,5.3883 0.73041,21.8664 0,11.4708 -0.20622,21.169 -0.44863,21.5484 -0.24085,0.381 -2.04954,0.8296 -4.01721,0.9996 -1.96768,0.1684 -4.27537,0.4156 -5.12698,0.5478 -0.94606,0.1417 -1.656,-0.031 -1.82443,-0.4786 z m 18.64413,-2.2951 -1.38839,-1.4954 -0.1889,-14.8111 c -0.11019,-8.1462 0,-17.3974 0.19677,-20.5599 0.51159,-7.6582 1.20736,-8.483 8.48462,-10.0745 5.83534,-1.275 6.86168,-1.0484 7.83135,1.7332 0.67373,1.9346 0.79022,40.2744 0.12593,42.6387 -0.70521,2.5186 -2.75789,3.4332 -8.44684,3.7622 -5.138,0.2975 -5.25291,0.2771 -6.61769,-1.1932 z m 24.52512,-1.6969 c -0.66114,-0.8406 -1.23727,-2.0558 -1.28135,-2.7028 -0.0472,-0.6454 -0.0157,-10.5452 0.063,-21.9986 0.11019,-16.2719 0.3101,-21.147 0.90198,-22.3009 0.8642,-1.6843 3.92748,-3.0302 8.55546,-3.7575 6.56732,-1.0326 6.66492,-0.6721 6.66019,24.7912 0,11.806 -0.23454,21.2635 -0.55409,22.411 -0.99958,3.6001 -2.67132,4.5824 -8.24851,4.85 -4.80113,0.2298 -4.91919,0.2046 -6.09665,-1.2924 z m 23.51768,-2.2542 c -1.89369,-2.0432 -2.04796,-4.3619 -1.84804,-27.7474 0.15898,-18.6929 0.26603,-20.7125 1.17431,-22.0962 1.33487,-2.0369 3.17032,-2.7579 12.19959,-4.7869 8.17137,-1.8371 9.16938,-1.7725 10.47906,0.6753 0.69105,1.2892 0.76346,5.6842 0.57928,34.9475 -0.12593,19.8153 0.46123,18.5371 -9.01353,19.6531 -9.87459,1.1633 -11.98709,1.0626 -13.57067,-0.6454 z m 34.20924,-2.8051 c -2.74058,-1.9204 -2.84133,-2.9074 -2.84133,-27.9426 0,-25.3216 0.14168,-26.6707 3.0869,-28.5974 1.88424,-1.2357 17.7752,-4.9318 19.42175,-4.5178 0.74614,0.1873 1.78508,0.9949 2.31084,1.7945 0.92875,1.4183 1.05783,10.8553 0.73513,53.3571 0,0.6816 -0.70679,2.0212 -1.56155,2.9767 -1.49386,1.6733 -1.84804,1.7757 -9.57865,2.7658 -9.91709,1.2719 -9.9895,1.2719 -11.57309,0.1637 z m 35.91089,-5.064 c -2.05425,-2.3565 -2.0999,-2.9956 -2.0999,-29.2759 0,-28.4699 0.0315,-28.7501 3.33718,-30.7603 0.9555,-0.5824 6.10924,-2.1093 11.45345,-3.397 8.371282,-2.0149 9.937553,-2.2479 11.318075,-1.6749 3.54654,1.4687 3.456814,0.6344 3.359217,31.2042 -0.04722,15.2487 -0.306957,28.2937 -0.571413,28.9894 -0.530486,1.3979 -3.622099,4.214 -4.643717,4.2313 -0.358904,0 -4.025082,0.3747 -8.149332,0.8217 -10.1721,1.1003 -12.94574,1.072 -14.00356,-0.1417 z m 41.21417,-3.3388 c -1.257739,-0.414 -3.392275,-2.4855 -3.892852,-3.7763 -0.242417,-0.6313 -0.51317,-13.6258 -0.599747,-28.8776 -0.173156,-30.7053 -0.166859,-30.7682 3.352921,-32.9075 0.936614,-0.5698 4.262775,-1.6056 7.392168,-2.3014 3.127819,-0.6957 8.660925,-1.9787 12.297192,-2.8523 7.348092,-1.7678 8.344523,-1.6403 10.554618,1.3475 1.1444,1.5442 1.161716,2.0054 1.161716,31.6528 v 30.085 l -1.235701,1.9881 c -0.680029,1.0925 -1.877951,2.2778 -2.660299,2.6351 -0.783922,0.3574 -6.099798,1.146 -11.815505,1.7536 -5.714133,0.6076 -11.138624,1.1995 -12.054774,1.316 -0.916151,0.1102 -2.041662,0.095 -2.499737,-0.063 z m 208.24631,-31.2309 v -18.3262 h 3.05383 3.05541 v 18.3262 18.3261 h -3.05541 -3.05383 z m 41.09453,0 v -18.3262 h 2.77521 2.77679 v 14.9134 c 0,8.2013 0.16056,16.4482 0.35733,18.3246 l 0.35733,3.4143 h -3.13412 -3.13254 z m 25.28701,4.6626 c -5.62913,-5.6291 -6.21471,-22.9667 -0.93347,-27.6561 1.44821,-1.2861 1.45766,-0.9146 0.0787,3.0019 -2.03222,5.7771 -1.18848,15.2739 1.93147,21.7404 0.76976,1.5962 1.39941,3.1043 1.39941,3.353 0,0.7697 -1.54108,0.4974 -2.47769,-0.4392 z m -170.030876,-1.3286 c -6.269806,-0.5132 -7.41578,-2.7233 -7.41578,-14.3026 0,-7.7228 0.09445,-8.4343 1.267183,-10.1816 0.695771,-1.0342 1.882673,-2.1912 2.636687,-2.5737 1.043656,-0.5273 8.150904,-0.6958 29.693029,-0.7005 31.89525,0 30.67057,-0.1637 32.7689,4.2281 1.49229,3.1216 1.57887,17.388 0.12593,20.053 -1.88739,3.4537 -1.00272,3.3482 -29.559224,3.5623 -14.354595,0.1102 -27.635626,0.063 -29.513577,-0.079 z m 176.528926,0.095 c -2.55483,-0.3637 -2.99086,-2.5407 -2.80354,-14.0005 0.14167,-9.0198 0.30538,-10.6301 1.12236,-11.4455 0.84374,-0.8422 2.21954,-0.9351 12.21691,-0.817 11.96977,0.1417 12.96148,0.3463 14.41914,2.9783 0.93661,1.6937 1.34274,16.5615 0.52576,19.2879 -1.20736,4.0298 -1.62766,4.1589 -13.58484,4.1668 -5.85266,0 -11.20474,-0.079 -11.89579,-0.17 z m -458.93305,-11.0804 c 1.30339,-1.5569 3.75118,-4.0928 5.44023,-5.637 3.21755,-2.9405 4.42806,-3.4301 16.87795,-6.8349 4.28324,-1.1728 4.73501,-1.4262 4.88928,-2.7454 0.26603,-2.2667 1.8874,-3.3434 5.16948,-3.4332 2.79095,-0.079 2.91531,-0.016 3.35135,1.6261 0.43289,1.6356 0.5478,1.6922 2.80197,1.3884 2.48399,-0.3337 2.48242,-0.3321 3.482,-5.1647 0.38094,-1.8449 3.22542,-5.1884 5.34893,-6.2856 1.99444,-1.0326 12.91426,-1.105 14.94018,-0.094 0.76346,0.3793 1.75832,1.4561 2.21167,2.3927 l 0.82485,1.7048 6.55788,-1.6434 c 5.89673,-1.4766 6.6413,-1.8024 7.37642,-3.227 1.17116,-2.2636 4.05027,-5.4151 5.75191,-6.295 0.80124,-0.414 6.02424,-2.166 11.60615,-3.8944 9.88403,-3.0586 10.2697,-3.1326 14.70405,-2.7784 3.00504,0.2393 5.03883,0.7036 5.97544,1.3616 1.40729,0.9902 1.68906,0.924 28.49354,-6.6523 14.888231,-4.2092 27.150792,-7.7432 27.249963,-7.8518 0.09445,-0.1102 0.809109,-1.4482 1.582012,-2.9751 2.392695,-4.7366 3.770069,-5.6244 13.422704,-8.6531 8.95529,-2.8098 11.54003,-3.1467 17.126658,-2.2274 1.467099,0.2408 3.392274,0.976 4.281664,1.6324 l 1.615069,1.1948 19.04239,-5.4733 19.0423884,-5.4749 3.56543,-4.8562 3.56385603,-4.8563 12.44831057,0.3338 12.449884,0.3337 3.699232,-1.5978 c 15.691042,-6.7751 39.503082,-11.1654 61.586712,-11.3543 l 11.251957,-0.094 v -2.9641 -2.9657 l -1.707937,1.4388 c -3.20023,2.6918 -7.05845,2.5564 -10.74982,-0.3762 -1.67016,-1.327 -2.24787,-1.5474 -2.45093,-0.9382 -0.53679,1.6103 -3.3057,3.7905 -5.28597,4.162 -2.68549,0.5037 -4.84678,-0.4408 -7.35282,-3.216 l -2.01647,-2.2321 -4.6689,0.6533 c -6.090357,0.8516 -6.192676,0.9035 -6.88215,3.4662 -0.683177,2.5328 -3.138838,4.3557 -5.873122,4.3588 -6.705842,0 -8.629443,-13.0197 -2.238429,-15.1495 2.134536,-0.7131 3.93378,-0.1102 6.052574,2.0007 l 1.829152,1.8292 5.909325,-0.8343 5.9109,-0.8359 0.35576,-2.3785 c 0.39826,-2.6525 2.77993,-5.5001 5.08605,-6.0778 2.05583,-0.5163 4.99632,0.1259 6.94196,1.508 1.68119,1.198 1.74573,1.2027 2.31557,0.1732 2.64298,-4.7712 8.59481,-6.0321 12.91425,-2.7374 l 1.789797,1.3647 2.69965,-2.6996 c 3.2144,-3.216 6.04155,-4.2171 9.33308,-3.3089 3.26005,0.9005 5.16004,2.6005 6.98447,6.2494 2.8303,5.6653 2.04008,12.7458 -1.94564,17.4005 l -1.87008,2.185 6.75936,1.2892 c 14.82369,2.8256 29.96378,8.2989 41.34483,14.9465 4.33203,2.5296 13.09528,8.9411 12.72536,9.311 -0.12594,0.1259 -1.84647,-0.7556 -3.82359,-1.9582 -5.29699,-3.2176 -18.53552,-9.7518 -24.88246,-12.2799 -23.44841,-9.341 -56.316477,-12.7631 -79.785347,-8.3036 -12.161816,2.3093 -20.718849,5.2356 -32.510742,11.1166 -10.894633,5.4323 -18.546534,10.7577 -28.9704976,20.1616 -3.845628,3.471 -4.645292,3.9322 -8.81047,5.0829 -57.1476304,15.7965 -76.7787464,21.2367 -82.0489724,22.74 -3.511909,1.0028 -6.483888,1.7347 -6.601949,1.6277 -0.654843,-0.5903 5.880992,-8.2233 9.64319,-11.263 2.410011,-1.9472 3.899149,-3.3923 3.308846,-3.2144 -0.590303,0.1795 -23.064318,6.5909 -49.942788,14.2491 -26.87689,7.6567 -59.36402,16.9425 -72.1917,20.6339 -31.01059,8.9238 -56.32278,16.1066 -58.01813,16.4639 -1.27348,0.2676 -1.19792,0.079 0.99328,-2.5391 z m 404.10099,-10.5421 c -4.08333,-1.8008 -5.69052,-2.8586 -8.29415,-5.4622 -8.51296,-8.5146 -9.2654,-23.9034 -1.58674,-32.4446 2.46668,-2.7438 7.39374,-6.0825 8.99307,-6.0936 0.42659,0 -0.21408,0.7131 -1.4246,1.5899 -2.88225,2.0889 -5.3993,5.3175 -7.26781,9.3252 -1.32542,2.8429 -1.51275,3.9244 -1.51904,8.7948 0,4.4627 0.24241,6.2068 1.26718,8.8844 2.45724,6.4304 7.36541,11.4456 13.09371,13.3818 3.97785,1.3427 10.26025,0.8705 14.23181,-1.0704 2.59419,-1.2688 2.84605,-1.316 1.67016,-0.3196 -0.76031,0.647 -2.63353,1.8197 -4.1636,2.6068 -3.69136,1.9 -11.56049,2.3234 -14.99999,0.8075 z m 6.15804,-6.3249 c -4.69252,-1.0672 -9.46689,-5.6259 -11.46132,-10.9434 -1.59304,-4.2439 -1.3821,-11.3905 0.4439,-15.1054 1.53479,-3.1216 4.0912,-5.7897 7.05216,-7.3623 3.23801,-1.7205 10.18469,-1.7001 13.46363,0.031 9.55661,5.0687 12.69387,18.9574 6.2824,27.8088 -2.92004,4.0298 -10.60657,6.7404 -15.78077,5.563 z m 56.31648,-5.0718 c -7.98719,-11.9257 -21.47129,-22.2631 -38.0407,-29.1626 -11.33539,-4.7208 -18.03022,-6.4382 -30.86262,-7.9132 -6.8176,-0.7823 -8.4736,-1.5033 -9.86671,-4.2895 -1.3758,-2.7516 -4.11009,-14.0036 -3.87869,-15.9618 0.11019,-0.88 0.81855,-2.0212 1.65128,-2.6414 1.46395,-1.0878 1.49071,-1.0862 7.18438,0.1259 3.14198,0.6722 7.77468,1.9693 10.29173,2.8807 9.02613,3.2648 20.38828,9.9391 24.07807,14.1421 1.89054,2.1518 5.01364,8.3492 5.01364,9.9454 0,0.5273 1.27033,1.4561 3.19236,2.3329 14.32941,6.5342 27.8623,18.8015 33.85663,30.691 2.01963,4.0078 2.13296,4.4501 1.12866,4.4233 -0.38251,0 -2.06842,-2.0699 -3.74803,-4.5791 z m -173.649825,-22.1671 c -1.498583,-0.7241 -2.641409,-3.1357 -5.742468,-12.1067 -2.712246,-7.8534 -2.691782,-9.1159 0.193619,-11.8376 3.300975,-3.1136 18.94007,-9.7014 30.371485,-12.793 9.163072,-2.4793 20.759772,-4.2628 30.088142,-4.6296 8.627867,-0.3384 8.734907,-0.3274 11.730497,1.1381 3.87081,1.8937 5.3993,4.1967 7.88959,11.8785 2.3864,7.3591 2.45094,9.1505 0.39826,11.2032 -1.30339,1.3034 -2.17547,1.5993 -5.69209,1.9267 -26.003237,2.4242 -47.331283,7.1372 -63.483548,14.0288 -2.394269,1.0216 -4.393429,1.8402 -4.442227,1.8197 -0.04722,-0.016 -0.639102,-0.3038 -1.31126,-0.6281 z" id="path87" /></g></svg>